<?xml version="1.0" standalone="no"?>
<!DOCTYPE svg PUBLIC "-//W3C//DTD SVG 1.1//EN" "http://www.w3.org/Graphics/SVG/1.1/DTD/svg11.dtd">
<svg xmlns="http://www.w3.org/2000/svg">
<metadata>Generated by Fontastic.me</metadata>
<defs>
<font id="hkg" horiz-adv-x="512">
<font-face font-family="hkg" units-per-em="512" ascent="480" descent="-32"/>
<missing-glyph horiz-adv-x="512" />

<glyph unicode="&#57344;" d="M242 462c-15-3-26-9-36-19-7-7-13-15-17-23 0-2-1-4-1-4-1 0-2 1-5 2-5 3-11 5-18 7-7 2-22 3-30 1-11-2-21-6-29-12-5-3-14-12-17-17-7-8-11-19-13-30-1-7-1-23 1-30 2-7 4-13 7-18 2-2 2-4 2-4 0-1-2-1-3-2-9-4-17-9-24-17-10-10-16-22-19-37-1-6-1-20 0-26 3-14 9-27 19-37 7-7 15-13 24-17 1 0 3-1 3-1 0 0-1-3-3-6-3-6-6-13-7-20-1-6-1-20 0-26 2-11 6-21 13-30 3-5 12-13 17-17 8-6 18-10 29-12 8-1 23-1 30 1 7 2 13 5 18 7 3 2 4 3 4 3 0-1 1-2 2-4 6-15 19-30 34-37 10-6 21-8 33-8 13 0 23 2 33 8 15 7 28 21 34 36 1 1 1 3 1 3 1 0 3 0 5-2 5-3 11-5 18-7 7-2 23-2 30-1 11 2 21 6 29 12 6 4 14 12 18 17 6 9 10 19 12 30 2 8 1 23-1 30-2 7-4 13-7 18-1 3-2 5-2 5 0 0 2 1 4 1 8 4 16 10 23 17 10 10 16 23 19 37 1 6 1 20 0 26-3 15-9 27-19 37-7 8-15 13-23 17-2 1-4 1-4 2 0 0 1 2 2 4 3 5 5 11 7 18 2 7 3 23 1 30-2 11-6 22-12 30-4 5-12 14-18 17-8 6-18 10-29 12-7 2-23 1-30-1-7-2-13-4-18-7-2-1-4-2-5-2 0 0 0 2-1 4-4 8-9 16-17 23-10 10-22 17-37 19-7 2-21 2-27 0z m33-91c22-3 43-12 61-26 21-17 36-41 42-67 3-11 4-19 4-32 0-20-4-38-12-56-25-50-80-78-135-69-27 5-52 18-71 38-36 38-45 95-22 143 15 30 42 54 74 64 8 3 19 5 27 6 7 1 25 0 32-1z m-62-54c-4-1-8-6-10-10-3-9 0-18 8-23 3-1 4-1 9-1 6 0 8 0 12 4 6 5 7 13 5 20-4 9-14 14-24 10z m72 0c-4-1-8-6-10-10-3-9 1-19 9-23 3-1 4-1 8-1 5 0 6 0 8 1 4 2 7 5 8 8 2 3 2 4 2 8 0 5 0 6-1 8-2 4-5 7-8 9-5 2-11 2-16 0z m-119-59c2-30 21-59 49-73 14-8 27-10 44-10 24 1 44 9 61 26 16 16 25 36 26 58l1 5-19 0 0-3c-1-12-3-18-7-27-16-32-52-48-87-37-6 2-16 7-22 11-15 12-25 30-28 50 0 3 0 5 0 6 0 0-2 0-9 0l-10 0z"/>
<glyph unicode="&#57345;" d="M248 443c0 0-2 0-5 0-2 0-4 0-5 0-1 0-3-1-4-1-2 0-3 0-4 0 0 0-3-1-5-1-2 0-6-1-8-1-2-1-4-1-5-1-1-1-6-2-11-3-19-6-37-14-54-25-8-5-15-11-22-17-3-3-15-15-18-18-1-1-2-3-3-3 0 0-5-6-7-9-15-21-27-45-33-70-2-7-4-16-4-21 0-1 0-2-1-2 0-1 0-2 0-4 0-2 0-4 0-4-1-8-1-25 0-35 0-4 0-7 0-8 1 0 1-1 1-2 1-5 2-14 4-21 8-33 25-63 48-87 3-4 9-9 11-11 0 0 1-2 3-3 3-3 4-3 5-4 1-1 2-2 2-2 1-1 10-7 14-10 19-12 39-21 62-27 6-1 15-3 20-4 12-1 16-1 26-2 55 0 107 22 145 62 31 34 50 75 54 121 0 6 0 24 0 31-5 57-34 109-80 143-10 8-19 13-31 19-15 8-27 12-44 16-5 1-8 1-14 2-1 1-2 1-4 1-1 0-3 0-3 0-1 0-3 1-5 1-1 0-3 0-4 0-1 0-21 1-21 0z m21-23c25-2 42-7 65-18 18-10 29-17 44-31 9-9 17-18 23-28 14-21 24-46 27-67 2-11 3-18 3-31 0-14-2-26-4-38-4-17-15-43-27-61-8-12-24-28-37-39-20-16-51-30-74-34-25-4-56-3-77 3-13 3-31 11-44 18-18 10-35 25-49 42-12 15-23 36-30 56-7 22-10 49-6 76 2 26 12 51 28 75 10 16 30 36 46 47 19 13 42 22 62 27 14 3 35 4 50 3z m-63-76c-18-5-28-24-21-41 3-8 10-15 17-18 6-3 14-3 20-1 7 1 11 4 15 9 5 5 8 12 8 19 1 9-2 17-8 23-5 5-10 8-16 9-4 1-10 1-15 0z m108 0c-11-3-20-12-23-23-1-4-1-11 0-15 3-9 9-17 18-21 4-2 8-3 13-3 6 1 9 1 14 4 3 2 5 3 8 6 6 6 9 13 9 22 0 4 0 5-1 8-3 11-12 19-23 22-4 1-11 1-15 0z m60-114c-2-2-10-6-14-9-17-8-35-13-55-15-7-1-39-1-50 0-35 1-61 7-88 18-2 1-5 2-5 2 0 0 2-9 3-14 6-20 15-38 26-51l2-3-6-12c-11-18-12-20-12-29 0-5 1-6 1-9 2-6 5-11 9-15 4-3 5-4 12-8 10-6 13-7 20-8 10 0 19 3 26 10 4 4 5 5 16 25l8 14 4 0c47 0 80 25 97 72 4 9 6 19 8 28 0 6 1 6-2 4z"/>
<glyph unicode="&#57346;" d="M234 374c-54-5-101-44-115-97-14-47-1-96 34-131 34-34 83-47 130-34 45 13 80 48 92 92 14 47 1 97-34 131-28 28-67 42-107 39z m24-18c27-3 52-15 71-34 19-18 30-43 33-70 3-30-6-60-25-84-24-30-63-46-101-42-27 2-52 14-71 33-19 19-30 44-33 71-4 33 9 68 33 92 25 25 59 37 93 34z m-91-80l0-9 53 0 0 18-53 0z m107 0l0-9 53 0 0 18-53 0z m-84-26c-7-1-15-7-19-13-3-5-4-9-4-15 0-6 2-10 5-14 2-3 2-2-1-7-1-1-2-4-3-6-1-3-1-4-1-9 0-5 0-6 2-9 5-10 15-16 25-16 8 0 14 2 29 10 10 6 19 8 29 7 7-1 12-3 22-9 12-6 17-8 24-8 9-1 15 1 21 8 3 3 5 6 6 8 2 4 2 4 2 10 0 6 0 7-2 10-1 2-2 5-3 6l-2 2 2 2c4 5 5 10 5 17 0 5 0 6-2 10-3 5-8 10-14 13-4 2-4 2-10 2-8 1-12-1-21-5-3-2-8-4-11-6-9-5-17-7-26-6-8 1-13 3-23 9-4 2-8 4-10 5-7 3-14 4-20 4z m14-22c3-1 9-4 13-6 12-6 20-8 33-8 12 1 19 3 33 11 10 5 15 7 18 7 3-1 6-4 7-7 1-2 1-2 0-5-1-3-4-5-8-6-4-1-7-4-8-7-1-5 2-9 8-11 3-1 4-1 6-3 2-2 3-4 3-4 1-4-3-8-7-10-2-1-2-1-5 0-2 1-7 3-10 4-12 7-19 10-24 11-5 2-7 2-16 2-9 0-11 0-16-2-5-1-12-4-26-12-4-2-6-3-9-3-4 0-5 0-8 2-4 4-4 8 0 12 2 2 2 2 8 4 6 1 8 9 4 14-2 2-3 2-7 3-5 2-9 7-8 10 1 3 3 6 5 7 4 1 7 1 14-3z m-132 127c-4-1-10-7-11-11-2-6 0-13 5-18 4-4 7-5 13-5 6 0 10 1 17 4 5 3 10 4 15 4l3 1-1 2c0 3-4 9-9 13-4 4-10 8-15 10-5 1-13 2-17 0z m336 1c-6-2-13-6-19-11-4-4-8-10-8-13l-1-2 3 0c5-1 10-2 15-5 7-3 11-4 17-4 6 0 9 1 13 5 6 5 7 12 5 18-1 4-7 10-11 11-3 2-10 2-14 1z m-369-54c-8-2-17-6-23-12-6-6-9-14-9-22 0-6 1-9 5-13 5-4 8-6 13-5 5 0 9 2 12 5 4 5 5 8 5 14 0 3 0 7-1 9-1 10 0 13 8 22l3 3-4 0c-3 0-7 0-9-1z m424-2c8-9 9-12 7-22 0-2 0-6 0-9 0-6 1-9 5-14 5-5 12-7 18-5 4 2 10 8 11 12 3 8 0 20-9 28-8 8-20 13-31 13l-4 0z m-444-88c-6-4-12-19-12-32 0-7 1-9 5-14 3-3 5-4 7-5 4-1 9-1 13 1 3 2 7 6 9 10 1 3 1 4 1 8 0 7-1 9-9 17-6 6-7 10-8 14 0 3 0 3-2 3 0 0-2-1-4-2z m468-1c-1-4-2-8-9-14-7-8-8-10-8-17 0-4 0-5 1-8 2-4 6-8 9-10 4-2 9-2 13-1 4 2 10 8 11 11 2 4 2 12 0 18-2 13-10 24-16 24-1 0-1 0-1-3z"/>
<glyph unicode="&#57347;" d="M286 397c-4-1-7-4-13-11l-3-4-3 1c-18 8-40 13-61 13-66 0-125-44-143-108-14-52 0-107 38-146 39-38 94-52 146-38 49 14 89 54 102 103 9 32 8 66-4 95-2 4-3 7-3 7 0 1 1 3 5 6 6 5 8 8 9 12 2 6 1 12-3 20-3 6-11 18-14 20-1 1-2 2-2 3 0 1 7 4 11 5 21 7 42-15 46-48 1-2 1-11 1-18l0-12-5-2c-15-5-27-17-32-33-2-5-2-6-2-15 0-8 0-9 2-14 3-9 8-17 15-23 5-5 11-8 18-10 4-1 6-2 14-2 8 0 9 0 14 2 13 4 23 13 29 24 15 28 1 63-29 71l-4 2 0 13c0 20-2 32-8 45-4 11-9 18-17 26-7 7-13 11-22 13-7 3-19 3-25 0-6-1-12-5-17-8-2-1-3-2-3-2-1 0-2 1-4 2-6 5-12 8-16 10-5 2-13 3-18 1z m11-20c6-3 16-11 23-19 9-9 17-21 16-25 0 0-1-2-2-3-2-1-3-1-3-1 0 1-3 4-5 8-9 11-25 27-37 34l-2 1 3 3c2 2 3 3 3 3 1 0 2 0 4-1z m-78-1c44-5 83-32 103-72 15-31 17-67 6-100-1-3-4-9-6-13-26-53-84-82-142-70-55 12-96 58-102 114-4 38 10 76 37 104 27 27 66 41 104 37z m-76-60c-4-2-7-7-6-11 1-2 3-5 13-15l13-13-30 0c-29 0-29 0-31-1-3-3-4-5-4-9 0-4 1-6 4-8 2-1 2-1 44-1 28-1 42 0 44 0 3 1 6 4 6 7 1 6 2 5-22 29-12 12-22 22-23 22-3 1-6 1-8 0z m118 0c-2-1-43-42-44-44 0-1-1-3-1-5 0-4 2-7 5-8 2-2 3-2 45-2l42 0 3 2c6 4 6 12 0 17l-3 1-57 0 11 12c7 6 12 12 13 13 4 9-5 18-14 14z m-123-100c-8-2-16-9-19-17-2-6-2-14-1-20 2-4 4-9 7-12 3-3 9-6 13-8 4-1 6-1 68-1 63 0 65 0 69 1 4 2 10 5 13 8 10 12 10 30 0 42-3 3-9 6-13 7-4 2-6 2-69 2-62 0-64 0-68-2z m133-19c6-4 6-14 0-18l-2-1-125 0-2 1c-6 4-7 14 0 18 2 1 2 1 64 1l63 0 2-1z"/>
<glyph unicode="&#57348;" d="M365 403c-20-4-33-19-38-44-2-11-2-14-2-45 0-31 0-31-1-31-2 0-15 1-25 2l-7 0-4 5c-17 29-46 50-79 58-12 3-17 4-31 4-14 0-19-1-31-4-9-2-17-5-26-9-34-17-60-48-69-85-3-13-3-17-3-32 0-14 0-19 3-31 12-46 49-83 95-94 12-3 17-4 31-4 14 0 19 1 31 4 12 2 26 8 35 14l3 2 3-2c19-8 40-14 63-17 6-1 11-1 33-1 26 0 32 0 44 3 17 3 29 10 35 22 2 6 3 9 3 18l0 7 3 3c4 7 6 14 7 23 0 7 0 10-2 15l-1 3 2 3c4 4 7 11 8 16 1 6 1 20 0 24-1 5-4 11-7 15-5 6-14 12-22 15l-4 1 3 7c8 16 12 30 13 48 1 14 0 31-3 43-6 24-20 40-38 44-5 1-17 1-22 0z m18-17c16-4 26-23 27-56 1-14-1-28-5-40-2-6-10-23-11-24-1-1-3-1-7 0-9 0-34-1-40-2l-2 0-1 4c-1 12-2 19-2 47 0 26 1 30 1 36 2 11 6 20 10 26 6 7 19 11 30 9z m-194-52c49-5 89-41 99-89 13-65-33-128-99-134-36-4-72 11-96 38-36 42-36 104 0 147 23 27 60 42 96 38z m129-68c5-1 9-1 9-1 0 0 0-1 0-2l1-2-5-2c-6-2-12-5-15-7l-3-3 0 2c-1 1-2 4-3 8-1 3-2 7-2 7 0 1 0 1 18 0z m77-19c16-3 27-9 31-17 2-4 2-4 2-11 0-13-2-18-11-21-6-1-17-1-48-1-32 1-34 1-41 3-10 4-14 12-14 27 0 4 0 5 1 7 5 9 31 15 64 14 7 0 14 0 16-1z m-61-67c5 0 9-1 41-1 20 0 38 1 40 1l3 0 1-2c2-4 2-9 1-14-2-8-7-12-16-14-8-2-16-3-43-2-27 0-29 0-36 3-7 3-10 9-11 20-1 7 0 9 2 12l2 2 5-2c3-1 8-2 11-3z m-37-14c0-3 2-11 4-15 2-4 3-6 7-9 4-4 8-7 14-9 9-3 13-3 38-3 25-1 37 0 45 2 3 0 5 1 6 1 0-1-1-2-1-4-3-10-12-15-30-17-8-1-37-2-47-2-23 1-42 5-63 13l-6 2 6 6c10 10 17 20 23 32 3 5 4 6 4 3z m-81 116c-4-1-8-4-11-9-1-2-1-3-1-7 0-5 0-6 2-8 1-3 4-6 8-8 2-1 3-1 7-1 5 0 6 0 8 1 3 2 6 5 8 8 1 2 1 3 1 8 0 5-1 8-4 12-3 3-7 4-12 5-2 0-5 0-6-1z m-111-17c-3-2-4-4-4-8 0-3 0-4 1-5 2-4 2-4 33-4 31 0 30 0 33 4 2 2 2 8 0 10-3 4-2 4-33 4-25 0-29-1-30-1z m-5-54c0-5 2-13 4-18 8-24 29-41 57-47 5-1 7-1 17-1 13 0 18 1 28 4 5 2 15 6 19 10 13 8 22 20 27 34 2 5 4 13 4 18l0 3-17 0-1-5c-1-6-3-13-6-18-3-5-12-15-17-18-22-15-52-15-74 0-5 3-14 13-17 18-3 5-5 12-6 18l-1 5-17 0 0-3z"/>
<glyph unicode="&#57349;" d="M226 382c-12-2-23-5-34-10-12-6-19-11-38-28-27-22-44-29-69-30-6-1-11-1-12-2-4-1-7-5-8-9 0-6 3-10 11-13 8-2 14-7 20-16 6-7 9-11 20-32 5-9 12-20 14-23 10-17 24-32 36-42 10-7 27-15 38-18 4-2 8-3 8-3 1 0-6-7-14-15-9-9-16-17-17-18-2-5 0-11 4-14 3-2 8-2 11-1 1 1 11 10 22 21l19 19 19-20c11-11 21-20 22-20 10-4 19 5 15 15-1 1-7 8-15 15-7 8-13 14-13 15 1 0 4 0 8 0 10 0 24 1 36 3 34 5 62 17 88 38 11 9 31 29 33 33 3 7 1 13-6 17-10 6-19 15-47 47-20 25-43 48-55 57-32 26-64 37-96 34z m30-25c17-4 33-12 51-26 12-9 33-32 55-56 10-13 24-28 30-34l11-11-7-7c-30-28-59-41-101-46-14-1-59-2-68 0-20 3-36 10-49 20-5 4-15 15-20 20-5 8-13 21-22 37-11 19-17 28-22 34-2 3-3 6-3 6 0 0 3 1 7 3 9 2 20 8 29 13 6 4 10 8 32 26 17 14 29 20 44 22 8 2 25 1 33-1z m-71-45c-1-1-3-3-4-4-2-3-2-3-2-18 0-14 0-15 2-17 5-8 15-8 20 0 1 2 1 3 1 17 0 15 0 15-1 18-3 3-6 5-10 5-2 0-4 0-6-1z m73-22c-10-3-12-15-4-20 2-2 4-2 11-3 16-1 29-6 29-11 0-3-5-7-12-11-6-3-7-4-9-8-1-4-1-8 2-11 5-6 12-5 24 3 12 8 18 16 18 27 0 6-2 12-6 17-6 7-19 13-32 16-8 1-18 2-21 1z"/>
<glyph unicode="&#57350;" d="M247 399c-5-1-15-3-20-4-14-4-29-12-42-22-5-4-15-14-19-20-8-11-15-25-19-38-3-10-3-17-4-28l0-11-46 0 0 46 12 0c10 0 12 0 14 1 2 1 17 16 19 18 3 7-4 14-10 11-1-1-5-4-9-8l-6-6-5 0 0 40-1 2c0 1-1 2-2 2-2 1-2 2-12 2-9 0-10-1-11-2-1 0-3-1-3-2l-1-2 0-111 1-2c1-1 2-2 3-3l2-1 57 0 1-4c3-11 9-27 16-37 9-14 23-26 37-35 2-1 5-3 5-3 0 0 0-16 0-37l0-37-46 0 0 15 0 15-91-46 146 0 2 1c4 2 5 5 5 10l0 5 85 0 2 1c2 1 3 1 4 3l1 2 0 34c0 19 0 34 0 34 1 0 11 7 15 10 6 4 16 14 20 19 10 12 18 27 22 42 1 5 3 14 4 21l0 2 55 0 2 1c2 1 2 2 3 4l1 2 0 110-1 2c0 1-2 2-3 3-1 1-2 1-11 1-10 0-10 0-12-1 0-1-2-2-2-3l-1-2 0-40-5 0-6 6c-8 8-9 9-12 9-5 0-8-3-8-8 0-2 1-3 2-4 2-4 16-17 18-18 2 0 4 0 14 0l12 0 0-46-23 0c-20 0-23 0-23 0 0 3-2 14-3 20-6 20-15 37-29 52-10 10-19 16-31 22-8 4-14 7-21 9-11 3-17 3-29 4-6 0-12 0-13 0z m24-17c11-1 21-4 30-9 6-2 17-9 18-11 0 0-1 0-1-1-3-2-9-8-11-10l-3-3-1 1c0 1-3 4-6 7-4 4-5 5-10 8-8 3-12 4-20 4-8 0-11 0-17-3-5-3-9-5-13-9-9-9-15-19-17-32-1-4-1-17 0-21 4-20 18-36 36-41 4-1 5-1 15-1 10 0 11 0 15 1 6 2 11 4 15 8l3 2 3-2c11-9 28-12 45-7 2 1 3 1 3 1 0 0-1-7-3-13-12-35-43-60-81-65-6-1-20-1-26 0-45 6-79 40-85 85-1 6-1 20 0 26 6 44 40 79 84 85 6 1 21 1 27 0z m3-30c9-3 16-10 21-22 3-6 6-8 11-8 2 1 4 3 6 8 5 9 10 15 18 20l2 1 3-4c2-3 4-6 5-7l2-2-1 0c-3 0-7-2-10-5-9-10-2-26 11-26 4 0 7 1 10 3l2 2 1-5c1-5 2-12 2-18 1-4 1-4-1-5-3-4-13-7-21-7-9-1-14 2-22 9-5 4-7 6-9 6-3 0-4-1-9-6-7-7-12-9-22-10-9 0-12 1-18 3-10 5-17 15-19 27-2 8-1 17 3 25 4 11 15 20 25 22 2 0 6-1 10-1z m-47-179c12-3 17-4 31-4 11 0 13 0 19 1 5 1 16 4 19 5 0 0 0-1 0-26l0-26-15 0 0 15 0 16-31-19c-16-10-30-18-30-18 0 0 0 13 0 29 0 28 0 29 1 29 0 0 3-1 6-2z m56 71l-2-2 0-23 4-4 23 0 4 4 0 23-4 4-23 0z m-8 93c-3-2-7-6-8-9-4-10 3-21 14-21 8 0 15 7 15 15 0 11-11 18-21 15z"/>
<glyph unicode="&#57351;" d="M237 452c-10-1-22-4-31-6-74-18-133-77-151-151-5-19-5-27-5-50 0-23 0-30 5-50 18-73 77-133 151-151 20-4 27-5 50-5 23 0 30 1 50 5 59 15 109 56 136 110 9 20 15 38 19 61 2 13 2 47 0 61-4 23-10 40-19 60-27 55-76 95-134 110-18 4-28 6-49 6-10 0-20 0-22 0z m34-28c33-3 62-14 91-34 10-7 32-29 39-39 25-36 37-77 34-118-3-35-14-64-34-93-7-10-29-32-39-39-37-26-77-38-119-34-34 3-63 13-93 34-10 7-32 29-39 39-20 29-31 58-34 93-3 41 9 82 34 118 7 10 29 32 39 39 37 26 78 37 121 34z m-98-29c-30-8-67-50-80-88-2-7-2-9-2-20 0-12 0-13 2-20 5-15 16-35 28-49 7-9 22-23 29-28 7-5 18-11 25-12 6-2 17-2 25-1 15 3 35 14 48 28l8 7 8-7c18-18 40-29 60-29 10 0 16 2 26 7 27 14 57 50 68 83 3 8 3 9 3 21 0 12 0 13-3 20-5 17-16 35-29 50-17 21-36 35-52 39-10 2-23 1-34-2-14-5-27-13-39-25l-8-8-8 8c-12 12-27 21-42 26-8 2-25 3-33 0z m23-27c19-5 42-24 45-38 3-10 7-14 14-15 7 0 13 5 15 14 2 8 13 21 25 29 9 7 22 11 29 11 10 0 21-7 35-21 11-11 17-19 24-31 11-19 13-31 8-45-6-16-18-33-32-47-14-14-25-21-35-21-4 0-12 2-19 5-16 8-33 25-36 37-1 10-13 15-21 10-3-2-6-8-6-10 0-3-4-11-8-16-13-15-35-27-49-26-16 2-44 28-58 56-11 22-12 30-1 51 11 22 30 44 47 54 8 4 14 5 23 3z m-2-83c-5-3-7-7-7-12 0-5 2-9 7-12 8-6 21 1 21 12 0 7-7 14-14 14-3 0-5-1-7-2z m110 0c-4-3-7-7-7-12 0-5 3-9 7-12 6-4 14-2 19 5 6 8-1 21-12 21-3 0-5-1-7-2z m-83-166c-4-2-6-6-6-12 0-5 2-9 6-12 2-1 4-1 35-1 31 0 33 0 35 1 4 3 6 7 6 12 0 6-2 10-6 12-2 2-4 2-35 2-31 0-33 0-35-2z"/>
<glyph unicode="&#57352;" d="M248 443c0 0-2 0-5 0-2 0-5 0-5 0-1 0-3-1-4-1-2 0-3 0-4 0 0 0-1 0-3-1-1 0-2 0-2 0-1 0-2 0-3 0 0 0-3-1-5-1-2-1-4-1-5-1-1-1-6-2-11-3-19-6-37-14-54-25-8-5-15-11-22-17-3-3-15-15-18-18-1-1-2-3-3-3 0 0-5-6-7-9-15-21-27-45-33-70-2-7-3-16-4-21 0-1 0-2-1-2-1-11-2-31 0-43 0-4 0-7 0-8 1 0 1-1 1-2 2-14 7-32 12-46 12-29 30-55 54-76 4-3 4-3 5-4 1-1 2-2 2-2 1-1 10-7 14-10 19-12 39-21 62-27 6-1 15-3 20-4 12-1 16-1 26-2 55 0 107 22 145 62 31 34 50 75 54 121 0 6 0 24 0 31-5 57-34 109-80 143-16 12-36 23-55 29-7 3-15 5-18 5-1 0-1 1-2 1 0 0-1 0-1 0-1 0-2 0-4 1-2 0-4 1-6 1-1 0-3 0-3 0-1 1-2 1-4 1-1 0-3 0-3 0-1 0-3 1-5 1-1 0-3 0-4 0-1 0-21 1-21 0z m31-24c22-3 43-10 65-22 14-8 22-15 34-27 16-15 25-27 34-46 8-16 14-32 16-46 4-21 4-44 0-65-4-25-18-55-34-75-12-16-28-30-43-39-20-13-42-22-61-26-25-4-53-3-76 2-18 5-41 15-58 27-15 10-33 28-43 42-4 6-9 14-13 22-14 28-19 52-19 84 1 27 6 49 18 74 10 18 19 31 34 46 14 14 27 23 44 32 21 10 41 16 63 18 8 0 31 0 39-1z m-137-56c-14-1-25-14-28-32-1-12 2-21 9-29 5-5 9-8 18-14 14-8 18-11 25-18 4-5 8-9 10-13l1-2 1 3c4 6 13 16 22 23 2 1 7 5 11 7 10 7 15 10 19 14 6 7 9 14 9 24 0 13-5 25-13 31-3 2-9 5-12 6-4 0-11 0-15-1-8-3-16-10-21-19l-1-3-2 3c-4 7-8 13-14 16-4 2-8 4-12 4-1 0-2 1-3 1 0 0-2 0-4-1z m157 0c-3 0-5 0-9-2-10-5-16-15-18-28-3-19 3-31 24-44 16-9 20-12 26-19 5-4 8-9 10-12l2-3 1 2c2 5 9 12 15 18 6 5 10 8 18 13 9 6 13 8 17 12 8 8 11 15 11 26 0 16-7 28-18 34-5 2-8 3-13 3-5 0-8-1-13-3-5-2-9-5-12-9-2-3-5-8-6-10l0-1-2 3c-8 14-19 22-33 20z m-138-158c0-3 1-10 2-14 12-45 64-73 115-62 15 3 29 10 40 19 4 3 11 10 14 14 7 9 13 21 15 32 1 4 2 12 2 12-1 0-43 0-94 0l-94 0z"/>
<glyph unicode="&#57353;" d="M248 443c0 0-2 0-5 0-2 0-5 0-5 0-1 0-3-1-4-1-2 0-3 0-4 0 0 0-1 0-3-1-1 0-2 0-2 0-1 0-2 0-3 0 0 0-3-1-5-1-2-1-4-1-5-1-1-1-6-2-11-3-19-6-37-14-54-25-8-5-15-11-22-17-3-3-15-15-18-18-1-1-2-3-3-3 0 0-5-6-7-9-15-21-27-45-33-70-2-7-3-16-4-21 0-1 0-2-1-2-1-11-2-31 0-43 0-4 0-7 0-8 1 0 1-1 1-2 2-14 7-32 12-46 12-29 31-56 54-76 1-1 3-2 3-2 0-1 1-1 2-2 1-1 2-2 2-2 1 0 3-2 5-4 22-16 45-27 71-33 6-1 15-3 20-4 12-1 16-1 26-2 55 0 107 22 145 62 31 34 50 75 54 121 0 6 0 24 0 31-5 57-34 109-80 143-16 12-36 23-55 29-7 3-15 5-18 5-1 0-1 1-2 1 0 0-1 0-1 0-1 0-2 0-4 1-3 0-9 1-13 2-1 0-3 0-3 0-1 0-3 1-5 1-1 0-3 0-4 0-1 0-21 1-21 0z m29-24c20-2 36-7 55-16 21-10 35-21 52-38 13-14 23-29 31-47 10-21 14-38 16-61 1-19-1-42-6-58-5-17-13-35-24-51-10-15-29-35-44-46-20-14-47-25-69-29-24-4-50-3-72 2-21 5-48 17-65 30-12 10-26 24-36 36-6 8-13 21-18 31-8 18-13 34-15 53-1 8-1 33 0 41 3 22 8 39 18 60 11 21 26 39 45 55 19 16 45 29 69 35 9 2 17 3 28 4 5 0 30 0 35-1z m-68-77c-5-1-10-4-13-8-7-6-10-14-10-23 1-13 10-24 22-27 4-1 11-1 14 0 11 2 19 10 22 21 0 3 1 11 0 15-3 10-10 18-20 21-3 1-11 1-15 1z m110-1c-10-2-17-10-20-19-2-5-2-11-1-16 1-4 3-9 6-12 3-5 10-9 15-10 4-1 11-1 14 0 6 1 12 5 16 9 2 3 5 9 6 12 1 4 1 11 0 15-3 10-10 17-19 21-3 1-4 1-9 1-4 0-5 0-8-1z m-156-115c2-37 21-70 53-88 9-6 18-10 29-12 10-3 14-3 27-3 10 0 12 0 16 0 19 4 34 10 49 21 6 5 14 13 19 18 14 19 23 41 24 63l0 7-25 0-1-7c0-11-3-21-8-31-6-13-16-25-29-33-38-25-90-15-115 24-9 13-13 28-14 43l0 4-13 0-12 0 0-6z"/>
<glyph unicode="&#57354;" d="M249 444c0-1-2-1-5-1-3 0-6 0-6 0-1 0-2-1-4-1-2 0-3 0-4 0 0 0-1 0-2-1-39-5-75-22-104-48-3-3-14-14-17-17-1-1-2-3-3-3 0 0-5-6-7-9-21-28-34-63-38-97 0-1 0-3 0-4-1-9-1-29 0-35 0 0 0-2 0-4 0-2 0-3 0-4 1 0 1-1 1-2 1-13 7-32 12-46 12-29 30-55 54-76 4-3 4-3 5-4 1-1 2-2 2-2 1-1 10-7 14-10 19-12 39-21 62-27 6-1 15-3 20-4 12-1 16-1 26-2 55 0 107 22 145 62 31 34 50 75 54 121 0 6 0 24 0 31-5 57-34 109-80 143-16 12-36 23-55 29-7 3-15 5-18 5-1 0-1 1-2 1 0 0-1 0-1 0-1 0-2 0-4 1-2 0-4 1-6 1-1 0-3 0-3 0-1 1-2 1-4 1-1 0-3 0-3 0-1 0-3 1-5 1-1 0-3 0-4 0-1 0-20 1-20 1z m17-24c10 0 22-2 32-4 6-2 18-6 25-9 18-7 33-17 46-28 24-20 39-43 51-71 6-18 9-31 11-51 1-20-1-42-6-58-5-18-15-38-26-54-8-13-26-31-40-41-13-10-34-20-52-26-16-5-34-8-54-7-28 0-48 5-73 17-18 9-31 18-46 32-16 16-26 29-35 49-9 18-15 36-17 56-1 8-1 32 0 41 3 21 8 37 17 56 8 16 15 27 26 40 16 17 33 30 54 40 22 12 44 17 68 18 7 0 10 0 19 0z m35-34c-2 0-4-1-5-1l-2 0 1-8c0-22 7-43 19-58 2-2 4-4 5-5l1-2-23 0 0-26 26 0 0-13 0-13 26 0 0 26 13 0c8 0 14 0 17 0 3-1 8-1 11-1l7 0 0 10c0 6 0 11 1 12 0 2 0 2 0 3 0 0-3 0-6 0-23 2-43 11-55 25-10 12-15 26-16 44l-1 7-7 0c-4 0-9 0-12 0z m-111-5c0-13-2-22-6-31-11-24-35-39-67-41-4 0-4 0-4-1 0-1 1-11 1-18l0-6 4 0c5 0 12 1 18 2 3 0 8 0 16 0l12 0 0-26 25 0 0 26 26 0 0 26-12 0-12 0 4 4c4 5 7 10 10 17 6 11 9 22 11 36 0 6 1 15 0 15-1 1-7 1-16 2l-9 0-1-5z m66-90c-1-1-1-1-1 0 0 0 0 0-1 0 0 0-1 0-1 0-1 0-3 0-3-1 0 0 1 0 1 0 0 1 0 1 0 0 0 0 0 0-1 0 0 1 0 1 0 0 0 0-1 0-1 0 0 0-1 0-1 0 0 0 0 0 0 0-1 0-1 0-1 0 0 0-1-1-2-1 0 1 0 1 0 0-1 0-1 0-2 0 0 0 0 0 0 0 0-1 0-1 0 0-1 0-1 0-1 0 0-1 0-1 0-1 0 0-1 0-1 0 0 0 0 0-1 0 0 1 0 1 0 0-1-1-1-1-2 0 0 1 0 1 0 0 0-1 0-1 0-1-1 0-1 0 0 0 0 0-1 0-1 0-1-1-2-1-2-1 0 0 0 0-1 0 0 0 0 0 0-1 0 0 0 0 0 0-1 1-1 1-2 0 0-1 0-1-1-1 0 1 0 1 0 0 0-1-1-1-2 0 0 0-1-1 0-1 0-1 0-1 0-1-1 1-2-1-2-1 0 0 0 0 0 0 0 0-1 0-1-1 0 0 0 0 0 0 0 1 0 1 0 1 0-1-1-1-1 0-1 0-1 0 0 0 0-1 0-1-1-2-1-1-1-1-2-1 0 0 0 0-1 0 0 0 0 0 0 0 0 1 0 1 0 0 0 0 0 0 0 0 0-1 0-1 0-1 0 0 0 0 0 0 1-1 1-1 0-1 0 0-1 0-1 0 1 0 0-1-1-1 0 0 0 0 0-1 0 0 0 0 0 0 0 0-1 0-1-1 0 0 0 0 0 0 0 0-1 0-1-1 0 0 0-1 0-1 0 0-1 0-1 0 0-1 0-1-1-1 0 0 0 0 0-1 0 0 0-1-1-1 0-1 0-1 0 0 0 0 0 0 0 0-1 0-1 0-1 0 1-1 0-1 0-1-1 0-1 0-2 0 0 0 0-1 1 0 1 0 1-1 1-1 0-1 0-1-1-1 0 0 0 0-1 0-1-1-1-1 0 0 1 0 1-1 1-1 0 0 0 0 0 0-1 0-1-1-2-1 0-1 0-1 0-1 1 0 0-2-1-3 0-1 0-1 0-1 0-1 0-1 0 0-1 0-1 0-1-1 1 0 1-1 0-1 0-1 0-1 0-1 0 0 0 0 0-1 0 0-1-1-1 0 0 0 0 0 0-1 0 0 0-1 0-2 0-1 0-1 0-1 0 0 0-1-1-1 0-1 0-1-1 0 0 0 0 0 0 0 0-1 0-1 1-1 0 0 0 0 0-2 0-1 0-2 0-2 0-1 0-1 0-2 0-1 0-1-2-1 0 0 0 0 1 0 1-1 1-1 1-4 0-2 0-3-1-4 0 0 0 0 1-1 0 0 0 0 0 0-1 1-1 1 0 1 0 1 0 0 1-2 0-1 0-1-1-1-1 0-1 0 0-1 0-1 0-1 0 0 0 0 0 0 1 0 0 0 0 0 0-1 0 0 0-1 0-1 1 0 1-1 1-3 0 0 0 0 0 0 1 0 1-1 1-2 0 0 0-1 1-1 0 1 0 0 0 0-1-1-1-1-1-1 1 0 3-3 3-4 0 0 0 0 0 0 0 0 0-1 0-1 0 0 0-1 0 0 1 0 1-1 1-1 0 0 0-1 1-1 0 1 0 0 0 0 0 0 0-1 0-1 0 0 0 0 0 0 0-1 0-1 0 0 0 0 0 0 1 0 0-1 0-1-1-1 0-1 0-1 0-1 0 0 1 0 1 1 0 0 0 0 0-1 0 0 0-1 1-1 0 0 1 0 1-1 0 0 0 0 1 0 0 0 0 0 0 0 0-1 0-1 0-1 0 0 1 0 1-1-1 0 0 0 0-1 0 0 0 0 0 1 0 0 0 0 0 0 0 0 1 0 1 0 0-1 0-1 0-1 0-1 0 0 0 0 0 0 0 0 0 0 0 0 1-1 1-1-1-1 0-1 0-1 0 0 0 0 0 0 0 0 0 0 0 0 0 0 0 1 0 1 0 0 0 0 1-1 0 0 1-1 0-1 0 0 0 0 1 0 0 0 1 0 0 0 0-1 0-1 0-1 1 0 1 0 1 0 0-1 0-1 0-1-1 0 0 0 0-1 2 0 2 0 2 0 0 1 0 1 0 0 0 0-1 0-1 1-1 0-1 0 0 0 0 0 0 0 0 1 0 0 0 0 0-1 1 0 1 0 1 0 0 0 0 0 1-1 0-1 1-1 1-1-1 1-1 1 0 1 0 0 0-1 0-1 0-1 0-1 1-1 0 0 0 0 0 1 0 0 0 0 1-1 1 0 1-1 1-1 0 0 0 0 0 0 1 0 1 0 1 0 0-1 0-1 1 0 0 0 0 0 0-1 0 0 0 0 0 0 1 0 1 0 1 0 0-1 0-1 1-1 0 0 0 0 0 0 0 0 1 0 1 0 0 0 0 0 0 0 0 0 0-1 0-1-1 0-1 0 0 0 0 0 0 0 0 0 1 1 1 1 1 0 1 0 1 0 1 0 0 0 0 0 1 0 0 0 0-1 0-1 0-1 0-1 0 0 1 0 1 0 2 0 0-1 1-1 1-1 0 0 1 0 1 0 1-1 1-1 1-1 0 1 0 1 0 1 1 0 1 0 1-1 0 0 0 0 0 1 0 0 1 0 1 0 1-1 2-1 1 0 0 0 1 0 1-1 0 0 1-1 1-1 0 0 0 1 0 1-1 0-1 0 0 0 0 0 1 0 1 0 1-1 1-1 1-1-1 1 0 1 0 1 0 0 0 0 0-1 0 0 0 0 1 1 0 0 0 0 0 0 0 0 1-1 1-1 0 0 1 1 0 1 0 0 0 0 1 0 0 0 0 0 0-1 0 0 0 0 0-1 0 0 0 0 0 1 0 0 0 0 0 1 1 0 1 0 1 0 0-1 0-1 0-1 1 0 1 0 1 0 0 1 0 1 0 1-1-1-1-1-1 0 1 0 1 0 1-1 1 0 1 0 1 0 1 0 1 0 0 0 0 0 0 0 0 1 0 0 0 0 0 0 0-1 0-1 1 0 0 0 0 0 0 0 0-1 1-1 2 0 0 0 1 0 1-1 1-1 2-1 1 0 0 1 0 1 0 1 0 0 0 0 0 0 1 0 1 0 1 0 0 0 1 0 1 0 0-1 0-1 1 0 0 1 0 1-1 0 0 0 0 0 0 0 1 1 1 1 1 0 1 0 1 0 1 0 0 1 1 1 1 0 0 0 1 0 1 1 0 0 0 0 0 0 0 0 0 0 0 0 1 1 1 1 1 0 0 0 0 0 0 0 1 1 1 1 1 0 0 0 0 0 0 1 1 0 1 0 1 0 0 0 0 0 0 0 0 1 1 1 1 0 0 0 0 0 0 0 0 0 1 0 1 0 1 0 1 0 1 0 1 0 0 1 0 1 0 0 0 0 0 0 0 0 0 0 1 0 0 0 0 0 0 0 0 1 0 1 0 1 0-1 1 0 1 0 0 0 1 0 1 0 0 0 0-1 0-1 0 0 0 1 0 1 0 0 0 1 0 0 1 0 1 0 1 1 0 0 0 0 0 0 1-1 1-1 1-1 0 0 0 1 0 1 0 0 0 0 0 1 0 0 1 0 1-1 1 0 1 0 0 1 0 0 0 0 1 0 0 0 0 0 1 1 0 0 0 0 0 0 0 0 0 0 1 0 0 1 1 1 1 1-1-1 0 0 0 0 1 1 1 1 1 0 0-1 0-1 0 0 0 0 0 0 1 0 0 0 0 0 0 0-1 1-1 2 0 2 0-1 0 0 0 0 1 1 1 1 1 0 1-1 1-1 1 0-1 1-1 1 0 1 0-1 1 1 1 1 0 1 1 1 1 1 0 0 0 0 0 0 0 0 0 0 0 0 1 0 1 0 1 1 1 0 1 1 2 1 0-1 0 0 0 0 0 0 0 0 0 1 0 0 1 0 1 0-1 1 0 1 1 1 0 0 1 0 1 0 0 0-1 0-1 0-1 0-1 0-1 0 0 0 0 1 0 0 1 0 1 1 1 1 0 1 1 1 1 1 0-1 0 0 0 0 0 1 1 1 1 1 0 0 1 0 0 0 0 1 0 1 1 2 0 0 0 0 0 0 0-1 2 2 2 3 0 0 0 0 0 0 1 0 1 0 1 0-1 1 0 2 1 2 0 0 0 0 0 1 0 0 0 0 0 0 0 0 0 1 0 1 0 1 0 2 1 2 0-1 0 0 0 0 0 1 0 1 1 1 1 0 1 0 0 0 0 1 0 2 1 5 0 0 0 1 0 2 0 0 1 1 1 1 0 1 0 1 0 1 0 0 0 0 0 0 0 1 0 2 0 3 0 1 1 2 1 2 0-1 0-1 0 0-1 1-1 7 0 7 0 0 1 0 1 0 0 0 0 0-1 0 0 0 0 0 0 0 0 1-1 2-1 3 0 2 0 3 0 4 0 0 0 0 0 0 0 0 0 0 0 0 0 0 0 1 0 1 0 0 1 0 1 0 0 1 0 1-1 0 0 0 0 0-1 1 0 0 0 1 1 0 0 0 0 0 0 0 0 1 0 1-1 1 0 0 0 0 0 1 0 0 0 1-1 1 0 0 0 1 0 2 0 0 0 1 0 1-1 0-1 0-1 1 0 1-1 2-1 2 0-1 0 0 0 0 0 0-2 5-2 4 0 0 0 1 0 1 1 0 1 0 0 0-1 0-1 0-1 1 0 0 0 0 0 1l-1 1 1-1c1-1 1-1 0 0 0 0 0 1 0 1 0 1 0 0-1 0 0-1-1-1-1 0 0 0 0 1-1 1 0 0 0 0 0 0 0 1 0 2-1 2 0 0 0 0 0 0 0 0-2 2-2 2 0 0 0 0 0 0 0 0 0 1 0 1-1 1-1 1-1 1-1 0-1 0-1 0 0 1 0 1 0 1 0 0 0 0 0 1 0 0-1 0-1 0 0-1 0-1 0 0 0 0 0 0-1 0 0 0 0 0 0 0 0 1 0 1 0 1 0 0-1 0 0 0 0 1 0 1-1 0 0 0 0 0 0 0 0 1 0 1-1 1 0 0 0 0 0 0 0 1-1 1-1 1 0-1 0-1 0 0 0 1 0 1 0 1 1-1 1-1 0 0 0 0 0 0 0 0-1 0-1 0-1-1 0 0 0 0 0 0 0 0 0 1 0 1 0 1-1 1-1 1 0-1 0-1 0-1 1 1 1 1 0 0 0 0-1 0-1 1 0 0 0 0 0 0 0 0 0 0 0 0 0 0 0 0-1 0 0 1-2 1-2 1 0 0 0 0 0 1-1 0-1 0-2 0 0 0 0 0 0 0 0 1 0 1 1 1 0 0 0 0 0 1 0 0 0 0-1-1l0-1-1 1c0 1 0 1 0 0 0 0 0 0-1 0 0 1 0 1-1 1 0 0 0 0 0 0 0 0 0 0 0 0-1 0-1 0-2 1 0 0-1 0-1 0 0 0 0 0-1 1 0 0 0 0 0 0 0-1 0-1 0-1-1 1-1 1-2 1 0 0-1 0 0 1 0 0 0 0-1 0-1-1-1-1 0-1 0 1 0 1 0 1-1 0-1 0-1-1 0 0 0 0 0 0 0 1-1 1-1 1 0-1 0-1 0 0-1 0-1 0-1 0 0-1 0-1 0 0 0 0-1 0-1 0 0 0 0 1 0 1 0 0 0 0 0 0-1 0-1-1-1-1 0 0 0 0 0 0 0 0-1 0-1 0 0 1 0 1-1 1 0-1-5-1-5 0 0 0 1 0 1 0 0 1 0 1 0 1 0 0-1-1-1-1z m-146-68c0-5 0-10 0-12l0-3 13 0 13 0 1-5c9-23 23-45 39-61 19-19 40-30 66-34 5-1 20-1 27-1 21 2 40 10 57 23 5 4 15 14 19 20 12 14 21 32 27 50l3 6 12 0 13 0 0 10c0 5 0 10 0 12l-1 3-45-1-2-6c-3-10-6-16-10-25-5-10-7-14-12-22-14-20-30-34-48-40-8-3-12-3-22-3-9 0-13 0-21 3-23 6-45 23-62 50-5 7-8 12-12 21-4 6-9 19-10 23l0 0-44 0-1-8z"/>
<glyph unicode="&#57355;" d="M250 435c-1 0-3 0-6 0-2 0-5 0-6-1 0 0-2 0-3 0-1 0-3 0-4 0 0 0-1-1-2-1-31-4-62-17-87-36-12-9-24-21-34-32-27-34-42-76-42-119 0-5 1-15 1-17 0-1 0-2 0-4 1-4 2-13 3-17 5-28 17-53 34-76 8-10 17-21 27-29 4-4 4-4 6-5 0-1 1-1 1-1 1-1 3-2 5-4 21-15 43-26 68-32 6-1 15-3 19-4 11-1 15-1 25-1 49-1 96 18 132 52 34 33 54 75 58 123 1 8 1 28 0 35-2 11-3 18-5 27-11 42-36 79-71 105-9 7-18 12-29 18-12 6-22 9-35 13-5 1-13 3-18 4-1 0-3 0-4 0 0 0-2 1-3 1-1 0-3 0-3 0-1 0-2 0-4 0-2 1-4 1-4 1-2 0-19 0-19 0z m19-22c17-2 30-4 44-10 17-6 34-15 46-25 13-10 27-25 35-37 10-15 21-38 25-55 1-4 3-13 3-19 2-19 1-43-2-60-4-16-15-40-26-56-8-12-21-27-34-37-18-15-48-29-70-33-18-4-43-4-62-1-22 3-48 14-68 28-15 10-33 29-43 44-9 13-17 30-21 44-11 32-10 72 1 103 6 18 17 38 28 52 13 15 28 28 43 37 21 13 43 21 63 23 10 2 28 2 38 2z m-85-73c-9-2-17-8-21-17-1-4-2-7-2-12 0-5 1-9 3-14 2-3 3-4 6-7 3-3 4-4 7-6 11-5 23-4 33 4 7 6 11 15 11 24-1 11-7 21-17 26-5 2-8 3-13 3-3 0-5-1-7-1z m126 0c-9-2-16-8-20-17-2-4-3-7-3-12 0-5 1-9 3-13 2-4 4-6 7-9 9-8 22-10 33-5 7 3 13 10 16 19 1 2 1 3 1 8 0 6-1 9-3 13-4 8-12 14-20 16-4 1-10 1-14 0z m-59-102c-24-2-43-15-53-36-16-32-3-71 28-87 9-4 18-6 27-7 12 0 21 2 31 7 20 9 33 28 36 50 1 5 1 16 0 21-6 28-29 49-58 52-4 0-8 0-11 0z"/>
<glyph unicode="&#57356;" d="M250 435c-1 0-3 0-6 0-2 0-5 0-5-1-1 0-3 0-4 0-1 0-3 0-4 0 0 0-1-1-2-1-31-4-62-17-87-36-17-12-32-29-44-46-21-31-32-68-32-105 0-9 1-15 2-26 6-46 30-90 66-120 1-1 2-2 3-2 1-1 2-2 4-4 1 0 2-1 2-1 1-1 11-8 16-11 12-7 28-14 41-18 10-3 22-6 30-7 11-1 15-1 25-1 52-1 103 21 139 59 30 32 48 71 51 116 1 6 1 23 0 29-4 55-31 105-76 138-15 11-35 22-52 27-6 2-9 3-10 3 0 0-2 1-4 1-1 1-3 1-4 1 0 0-1 1-2 1 0 0-1 0-1 0-1 0-1 0-2 0-2 1-10 2-14 3-3 0-4 0-7 0-2 1-4 1-4 1-2 0-19 0-19 0z m19-22c12-1 21-3 30-5 21-6 45-18 60-30 13-11 28-26 36-38 13-20 23-44 26-63 3-21 3-43 0-64-1-6-3-12-5-19-7-19-17-39-28-52-11-13-25-27-36-34-16-11-37-21-54-25-4-1-5-1-2 0 2 1 12 6 15 9 3 2 8 6 9 9 4 6 5 12 5 19 0 8-1 10-11 27-4 6-7 11-7 12 0 0 17 0 19-1 3 0 7-3 10-5 4-4 6-9 7-15l0-3 13 0c11 0 13 1 13 1 0 1-2 10-3 13-7 16-19 27-35 32l-3 1-71 0c-77 0-73 0-80-2-3-2-10-5-14-8-4-3-10-8-13-13-4-6-9-17-10-23l0-1 24 0 1 3c4 10 11 17 18 20 3 1 3 1 19 1l16 0 19-32c10-17 19-33 19-34 6-7 15-12 25-13l2 0-2 0c-15-3-37-2-53 0-21 3-46 13-66 27-16 10-35 29-45 45-11 17-20 35-24 53-6 22-6 50-2 74 4 20 13 41 25 59 13 20 33 39 52 50 20 12 41 20 62 23 11 2 28 2 39 2z m-124-84l-8-8 35-35-35-35 17-17 35 35 1 0c0-1 8-9 17-18 9-9 17-16 17-16 0-1 16 16 16 16 0 0-7 8-17 18-9 9-17 17-17 17 0 0 8 8 17 18 10 9 17 17 17 17 0 1-16 17-16 17 0 0-7-7-15-15-8-8-16-16-18-17l-2-3-18 17c-9 10-17 18-17 18 0 0-4-4-9-9z m128 0l-8-8 37-37-33-33 8-8c4-5 8-8 8-8 1 0 8 7 17 16l17 17 3-3c6-7 13-13 21-22l9-9 8 9c5 4 9 8 9 8 0 1-8 8-17 17l-17 16 19 19 18 18-8 9c-4 4-8 8-8 8 0 0-9-9-19-19l-18-18-19 18c-10 10-18 19-18 19 0 0-4-4-9-9z"/>
<glyph unicode="&#57357;" d="M142 479c-12-3-22-13-24-26-2-9 4-16 12-14 4 0 7 4 8 9 2 6 4 9 8 10 3 1 4 1 5 0 7-2 9-6 9-14 0-7 0-7-9-16-10-10-12-15-12-21 0-7 4-11 10-11 5 0 8 2 10 7 1 3 3 5 8 11 8 9 12 14 14 19 0 2 0 7 0 13 0 8 0 9-2 13-6 15-23 24-37 20z m107 0c-12-3-22-13-24-26-2-9 4-16 12-14 4 0 7 4 8 9 2 6 4 9 8 10 2 1 3 1 5 0 6-2 9-6 9-14 0-7 0-7-9-16-10-10-12-15-12-21 0-7 4-11 10-11 5 0 8 2 10 7 1 3 2 5 8 11 8 9 12 14 13 19 1 2 1 7 1 13 0 8 0 9-2 13-6 15-23 24-37 20z m107 0c-12-3-22-13-25-26-1-9 5-16 13-14 4 0 6 4 8 9 2 6 4 9 8 10 2 1 3 1 5 0 6-2 9-6 9-14 0-7 0-7-9-16-10-10-12-15-12-21 0-7 3-11 10-11 5 0 8 2 10 7 1 3 2 5 8 11 8 9 12 14 13 19 1 2 1 7 1 13 0 8-1 9-2 13-6 15-23 24-37 20z m-211-106c-7-3-9-12-3-18 7-7 20 0 18 10-2 7-9 10-15 8z m107 0c-7-3-9-12-3-18 7-7 19 0 17 10-1 7-8 10-14 8z m107 0c-7-3-9-12-4-18 8-7 20 0 18 10-1 7-8 10-14 8z m-119-43c-65-6-120-53-138-116-16-56-1-115 41-157 41-41 100-56 157-41 53 15 95 58 110 111 16 56 1 115-41 157-34 34-80 51-129 46z m32-22c47-5 88-34 109-76 24-51 17-110-20-153-29-33-74-51-118-47-48 5-90 34-111 76-15 30-19 65-11 97 13 50 52 88 102 100 15 4 33 5 49 3z m-77-64c-9-3-14-12-14-22 1-7 5-14 12-17 3-2 5-2 10-2 4 0 6 0 9 2 4 2 8 6 10 10 2 5 2 13 0 18-2 4-6 8-10 10-5 2-12 3-17 1z m106 0c-4-2-10-7-11-12-6-14 4-29 19-29 12 0 22 9 22 21 0 15-15 25-30 20z m-87-128c-9-2-15-6-22-13-6-7-11-18-11-26l0-3 21 0 1 4c2 7 6 13 13 16 3 1 4 1 40 1l37 0 4-1c6-4 11-10 12-17l1-3 21 0 0 3c0 5-2 11-5 17-3 7-12 15-19 19-9 4-9 4-51 4-30 0-39 0-42-1z"/>
<glyph unicode="&#57358;" d="M393 446l0-9 78 0-78-109 0-9 0-9 108 0 0 18-78 0 15 21c9 12 26 37 39 55l24 33 0 9-1 9-107 0z m-107-27l-2 0 0-18 58-1-58-72 0-18 88 0 0 18-57 0 59 73 0 18-3 0c-4 0-81 0-85 0z m-75-46l0-9 12 0 12-1-12-17-11-18 0-18 53 0 0 18-12 0-12 0 11 18 12 18 0 18-53 0z m-74-82c-18-2-30-5-44-11-12-5-24-12-35-22-26-22-41-50-46-85-1-7-1-28 0-35 4-28 14-51 32-72 22-25 51-41 86-46 6-1 28-1 34 0 31 5 56 17 78 37 8 8 19 23 25 34 7 13 13 30 15 47 1 7 1 28 0 35-4 30-17 56-37 77-8 8-22 19-33 25-13 7-29 13-46 15-5 1-25 2-29 1z m30-19c13-3 23-6 34-12 23-12 41-30 52-54 22-45 13-99-23-134-15-16-36-27-57-32-48-10-97 9-124 50-5 7-12 20-14 28-3 8-5 17-6 25-1 8 0 24 1 31 7 38 29 68 62 86 10 5 26 11 38 12 2 1 5 1 6 1 1 0 7 0 13 0 9 0 13 0 18-1z m-73-36c-10-2-20-10-25-19-2-5-4-11-4-14l0-2 18 0 1 2c0 6 5 12 10 14 3 1 4 2 8 2 3 0 4-1 7-2 5-2 10-8 10-14l1-2 18 0 0 2c0 3-2 9-4 14-7 15-24 23-40 19z m90 0c-10-3-19-10-24-19-2-5-4-11-4-14l0-2 18 0 0 2c1 6 6 12 11 14 4 2 11 2 15 0 5-2 9-8 10-14l1-2 18 0 0 4c-1 4-3 12-6 16-3 3-8 8-11 11-2 0-5 2-7 3-4 1-6 2-11 2-5 0-8 0-10-1z m-65-54c-3-2-9-8-13-14-12-18-22-47-23-63 0-6 1-10 3-12l2-1 118 0 2 1c2 3 3 6 2 13-1 21-15 56-29 71-5 6-4 6-34 6-22-1-27-1-28-1z"/>
<glyph unicode="&#57359;" d="M247 435c-1 0-4 0-7 0-33-3-65-15-93-34-9-6-16-12-25-21-11-11-16-18-24-29-17-26-27-54-31-84-8-71 25-141 85-180 7-5 12-8 20-12 39-19 83-24 126-15 8 2 20 6 28 9 49 19 87 58 107 107 7 18 11 35 12 55 1 7 1 29 0 35-3 24-9 44-19 64-9 18-20 33-34 48-29 30-68 50-110 55-10 2-27 3-35 2z m29-23c19-2 35-7 52-15 18-9 30-17 45-32 16-15 24-27 34-47 11-22 15-39 16-64 1-17-1-37-5-51-4-17-13-35-23-52-9-13-25-30-39-40-7-6-16-11-26-16-13-6-23-10-35-13-24-6-57-5-80 1-21 5-47 18-62 30-17 14-30 29-40 45-12 19-19 40-23 59-2 16-2 36 0 51 3 25 12 50 27 72 13 19 32 37 52 49 20 12 43 20 65 23 10 1 32 1 42 0z m-90-52c-15-2-28-11-37-27-3-6-7-17-8-22l-1-1 12 0c7 0 12 0 12 0 0 1 1 2 1 4 2 8 5 16 10 20 2 2 5 4 8 5 3 1 9 1 12 0 8-2 14-7 18-16 1-3 3-9 4-12l0-1 13 0c6 0 12 0 12 1 0 0-4 11-6 15-11 23-27 34-46 34-2 0-3 0-4 0z m128 0c-11-1-21-7-29-16-5-5-9-13-12-20-2-4-4-11-5-13l0-1 12 0c7 0 12 0 12 0 0 1 0 1 0 2 1 3 2 9 4 12 3 8 9 14 16 15 3 1 8 1 11 0 10-2 17-12 21-25l1-4 12 0c7 0 13 0 13 1 0 0-4 11-6 15-11 22-27 34-46 34-2 0-4 0-4 0z m-198-79c0 0 0-3-1-5-3-27-1-51 6-73 10-28 27-52 52-70 20-14 44-23 69-26 4-1 17-1 22 0 31 2 61 15 84 35 5 4 14 13 18 18 24 30 34 69 29 113-1 4-1 7-1 8l0 1-21 0c-28-1-248-1-253 0-3 0-4 0-4-1z m262-18c0 0 0-4 0-11 0-25-3-41-13-60-6-12-11-20-22-30-7-8-13-13-20-17l-4-2 0 121 29 0c33 0 29 0 30-1z m-186 0c0 0 0-27 0-60l0-61-4 3c-8 5-13 9-21 17-10 10-16 19-22 31-10 19-13 35-13 59 0 5 0 9 0 10l0 2 30-1c16 0 30 0 30 0z m111-64l0-65-3-1c-7-3-15-5-21-6-8-2-20-3-28-3-14 1-24 3-37 8l-3 1 0 130 30 0c16 0 37 0 46 0l16 1z"/>
<glyph unicode="&#57360;" d="M241 435c-39-4-76-19-107-44-5-4-16-15-20-20-24-27-39-59-45-94-2-12-2-18-2-32 0-13 0-18 2-29 5-34 20-67 43-94 4-5 15-16 20-20 47-41 109-55 169-41 46 11 87 40 113 79 18 28 29 58 31 92 1 7 1 27 0 34-3 24-9 44-19 64-19 38-49 67-86 86-22 10-45 17-70 19-5 0-23 0-29 0z m27-22c39-3 74-18 103-45 14-13 28-32 37-50 14-30 19-63 14-95-7-55-41-102-90-127-26-14-55-20-84-18-54 2-103 30-132 75-26 40-34 88-23 134 4 14 10 29 17 41 3 6 11 17 15 22 28 36 68 58 113 62 3 1 6 1 7 1 5 0 19 0 23 0z m47-77c-8-2-15-8-19-15-4-8-3-17 1-25 3-7 10-12 18-14 3-1 9-1 12 0 10 2 18 10 21 20 1 3 1 10 0 14-4 14-18 23-33 20z m-154-29c-1 0-2-1-2-2-1-1-1-1-1-11 0-12 0-13 2-14 1-1 1-1 36-1 34 0 36 0 37 0 2 2 2 2 2 14 0 11 0 11-1 12-1 1-1 2-2 2 0 0-17 0-36 0-27 0-35 0-35 0z m194-56c-5-1-9-2-9-2-1-1-1-2 0-7 1-7 2-11 2-18 0-11-2-20-6-30-7-14-18-27-32-35-13-7-29-11-43-9-6 1-7 1-12 2-19 5-36 18-46 35-3 6-4 6-14 0-4-2-8-5-8-5-1-2-1-3 1-7 15-26 41-44 71-48 7-1 23-1 29 0 43 6 76 39 83 82 1 7 1 23 0 29-1 6-2 13-3 14-1 1-2 2-3 2-1 0-5-1-10-3z"/>
<glyph unicode="&#57361;" d="M241 443c-26-3-43-7-63-16-18-7-36-18-51-32-38-32-60-74-68-124-1-10-1-41 0-51 6-40 22-75 47-104 32-37 74-60 125-67 10-2 40-2 50 0 44 6 82 24 113 54 12 11 28 32 37 48 10 20 18 44 22 69 1 10 1 41 0 51-7 44-25 81-54 112-12 12-33 28-49 37-19 10-42 18-66 22-7 1-37 2-43 1z m37-27c62-8 114-49 137-106 8-19 12-37 13-58 1-49-16-94-51-128-33-34-79-52-127-50-16 0-18 1-30 3-60 13-107 55-127 112-8 25-11 53-8 78 10 78 71 139 148 149 12 1 33 1 45 0z m-96-52c-12-2-21-7-29-15-9-9-14-20-16-32l0-6 26 0 1 4c1 8 7 17 15 20 3 2 5 2 11 2 6 0 8 0 11-2 8-3 14-12 15-20l1-4 26 0-1 6c-1 12-6 23-15 32-10 10-21 14-35 15-5 0-9 0-10 0z m129-1c-22-5-39-24-41-46l-1-6 26 0 1 4c1 8 7 17 15 20 3 2 5 2 11 2 6 0 8 0 11-2 8-3 14-11 15-20l1-4 26 0 0 3c0 6-3 15-6 21-10 22-35 33-58 28z m-113-53c-9-3-11-14-4-21 9-9 24-1 22 12-1 8-11 13-18 9z m106 0c-9-3-11-14-4-21 9-9 24-1 22 12-2 8-11 13-18 9z m-193-73c0-17 1-22 2-29 6-27 18-48 38-67 36-34 89-48 140-37 32 7 61 24 81 49 14 15 23 35 27 55 1 6 2 12 2 29l1 22-292 0 1-22z m52-31l0-27-11 1-4 7c-6 12-11 30-11 41l0 4 26 0z m80 0l0-27-53 0 0 53 53 0z m79 0l0-27-53 0 0 53 53 0z m53 22c0-11-5-29-11-41l-4-7-11-1 0 53 26 0z m-132-88l0-13-2 0c-4 0-19 3-27 6-4 1-11 4-16 7l-8 4 0 9 53 0z m79 9c0-2 0-4 0-4 0-1-9-6-18-10-9-3-22-7-30-7l-5-1 0 26 53 0z"/>
<glyph unicode="&#57362;" d="M240 443c-30-3-49-9-72-20-14-7-27-15-39-26-7-5-10-7-12-7-3 0-3 0-4 4-1 5-2 20-2 29 0 9-1 12-5 16-5 5-12 5-17 0-2-2-4-4-4-6-1-2-1-20-1-45l0-43-6-12c-7-14-11-24-14-39-5-18-6-28-6-49 0-21 1-31 6-49 17-69 73-125 143-143 18-4 28-5 49-5 21 0 31 1 49 5 70 18 126 74 143 143 5 18 6 28 6 49 0 21-1 31-6 49-3 15-7 25-14 39l-6 12 0 42c0 27 0 43-1 45-3 10-15 14-21 6-4-3-5-7-5-17 0-10-1-23-2-28-2-6-4-5-16 4-17 15-38 27-59 35-10 3-27 8-39 10-8 1-38 2-45 1z m41-28c19-3 34-7 51-16 47-23 82-67 92-119 10-49-2-100-32-140-6-7-20-22-28-28-68-55-167-50-229 12-32 32-50 73-50 118-1 21 1 37 8 57 21 64 78 110 145 117 10 1 33 1 43-1z m-136-53c-2-1-4-2-5-4-2-3-3-8-1-12 2-5 6-7 16-8 9-2 14-3 21-7 10-5 22-14 31-24 4-5 4-6 1-3-6 6-10 7-18 7-8 0-13-2-19-7-5-6-7-11-7-19 0-8 2-13 7-19 6-5 11-7 19-7 8 0 13 2 18 7 6 6 8 11 8 19 0 6 0 8-2 11-2 3-2 5-2 5 0 0 2-3 4-6 5-6 8-9 13-9 9-1 16 9 12 19-3 7-16 22-27 32-19 16-39 26-58 27-6 0-7 0-11-1z m202 1c-13-2-24-8-37-16-10-7-28-25-35-35-4-6-4-8-5-12 0-4 0-6 2-8 4-6 10-8 16-5 2 1 4 3 9 10 2 2 2 1 0-3-4-13 2-28 14-33 6-3 17-3 22 0 5 2 10 7 13 12 2 4 2 6 2 12 0 5 0 8-2 11-7 15-26 20-40 10-3-2-1 0 5 6 9 9 19 17 28 20 6 3 9 4 19 5 5 1 9 2 10 3 8 6 8 16 0 22-3 2-13 3-21 1z m-173-158c-7-2-11-9-9-16 2-7 7-9 20-10 10-1 13-2 23-9 11-8 18-11 27-14 7-2 9-3 19-3 13 0 18 1 29 6 12 5 33 20 36 27 4 6 2 14-5 18-6 3-10 1-25-10-7-6-19-12-26-14-13-3-26 1-44 14-8 6-12 8-20 10-8 1-22 2-25 1z"/>
<glyph unicode="&#57363;" d="M237 443c-81-8-150-66-172-144-19-69 0-143 51-194 51-51 124-70 194-50 66 18 118 71 137 136 19 70 0 143-51 194-42 43-100 63-159 58z m36-27c71-7 131-58 149-127 4-15 5-27 5-44 0-28-5-50-17-75-22-46-63-79-112-91-20-5-47-7-67-4-78 12-138 75-146 154-5 50 13 102 50 138 36 36 87 54 138 49z m-72-79c-11-3-22-7-31-14-6-4-18-17-21-23-7-11-12-27-12-37l0-4 26 0 2 4c3 11 19 19 42 21l9 1 0 53-4 0c-3 0-8-1-11-1z m95-25l0-27 9-1c23-2 40-11 43-22l1-3 26 0 0 6c-1 15-8 31-17 43-13 17-35 28-55 30l-7 0 0-26z m-58-108c-14-2-31-9-42-17-7-5-16-15-20-20-7-10-11-23-12-34l-1-7 27 0 1 7c2 11 5 17 14 26 6 6 9 8 15 11 28 15 64 11 85-9 10-9 15-19 17-31l0-4 27 0 0 4c0 10-5 23-11 33-4 7-14 18-22 24-11 8-28 15-43 17-9 2-26 2-35 0z"/>
<glyph unicode="&#57364;" d="M192 397c-3-2-4-5-4-8 0-4 1-6 6-10 4-4 9-9 9-10-1 0-3-1-6-2-2-1-6-3-9-4-4-3-6-3-6-2 0 1-7 8-11 11-6 4-12 6-16 5-4-1-7-5-7-10 1-4 2-6 8-9 3-1 6-4 7-5 3-3 3-3 0-6l-2-1-4 4c-4 4-11 7-16 8-4 1-4 1-7-1-9-4-7-16 3-18 3-1 6-2 8-4l1-2-3-5c-6-8-11-16-13-25-1-4-1-4-11-5-26-2-48-12-59-28-4-5-8-13-10-19-1-7-1-24 0-31 5-24 22-51 46-72 40-35 93-58 151-64 9-1 14-1 29 1 56 8 108 32 144 68 35 35 49 73 38 103-4 13-16 26-29 32-10 5-24 9-36 10-4 1-8 1-9 1-1 0-1 2-3 7-2 7-6 14-11 20-1 2-3 5-4 6 0 0 0 1 2 3 1 2 4 3 6 4 6 2 9 5 9 10 0 4-3 8-7 9-6 1-15-3-21-8l-4-4-3 2c-2 1-2 2-1 3 0 1 5 5 8 6 6 3 9 6 9 11 0 3-2 6-5 8-6 4-20-3-29-14l-1-2-6 3c-4 2-8 3-10 4-2 1-4 2-4 2 0 1 3 4 7 8 4 3 7 7 8 8 1 2 0 6-1 9-3 4-9 5-15 2-4-2-12-10-16-16-2-3-3-5-4-5-1 0-2 1-2 8 0 6 0 7-2 9-3 7-13 7-16 0-1-1-2-3-2-8l0-6-20 0 0 6c0 7-2 10-5 12-5 3-11 1-13-3-1-2-2-4-2-10 0-6 0-7-1-8-2-1-3-1-5 3-2 5-11 14-16 17-3 3-4 3-7 3-2 0-4 0-5-1z m74-39c23-2 46-10 66-23 6-4 9-7 15-12 11-11 15-20 17-30 1-6 1-8 4-10 3-3 3-3 15-4 11-1 19-2 26-4 26-8 37-26 32-50-6-28-30-58-64-81-32-22-69-35-109-40-13-2-23-1-45 4-47 9-90 31-120 61-12 12-20 23-27 37-16 33-7 59 26 69 8 2 15 3 27 4 10 1 12 1 15 3 2 2 3 4 4 10 1 9 4 16 11 25 12 15 36 29 60 36 17 5 31 6 47 5z m-47-60c-7-3-12-10-12-18l0-3-4-2c-10-6-24-18-30-26-4-6-5-9-5-13 0-9 7-16 16-16l3 0 0-3c0-2 0-6 1-9 4-23 17-43 38-55 24-15 56-15 80 0 20 12 34 32 38 55 0 3 1 7 1 9l0 4-20 0 0-5c-2-17-10-31-22-41-11-9-23-13-37-13-15 0-26 4-37 13-13 10-20 24-22 41l0 5-17 0 3 1c1 1 3 3 4 5 2 2 2 3 2 12 1 5 1 11 2 14 1 5 5 19 6 20 0 1 1 0 2-2 3-7 10-11 17-11 11 0 20 9 20 20 0 14-14 23-27 18z m80 1c-5-2-9-6-12-11-1-2-1-3-1-8 0-6 0-6 2-9 2-4 5-7 9-9 2-1 3-2 8-2 5 0 7 1 9 2 4 2 7 5 9 9 1 3 2 3 2 9 0 6-1 9-5 13-4 4-8 6-14 6-3 0-6 0-7 0z"/>
<glyph unicode="&#57365;" d="M252 364c-45-5-85-38-97-82-2-6-3-14-4-19l0-4-151 0 0-91 187 0 3-2c4-4 11-9 17-12 41-24 94-20 130 12l3 2 172 0 0 91-136 0 0 4c-1 8-4 20-7 28-13 34-41 59-75 69-13 4-28 5-42 4z m23-16c11-1 21-4 31-8 20-10 35-26 45-45 5-10 9-23 10-33l0-3-195 0 0 1c0 3 2 11 3 17 9 34 36 61 71 69 11 3 24 4 35 2z m-215-112l0-7-30 0 0-30 30 0 0-16-17 1c-17 0-17 0-19 1-3 1-6 4-7 7l-2 2 0 20c0 19 0 19 1 21 2 4 6 7 10 8 1 1 9 1 18 1l16 0z m60 0l0-7-30 0 0-8 15 0 0-15-15 0 0-7 30 0 0-15-45 0 0 60 45 0z m35 6c1-1 4-5 13-19l12-18 1 19 0 20 15 0 0-61-9 1c-8 0-9 0-10 1-2 1-5 5-14 19l-12 18 0-19 0-19-15 0 0 60 8 0c9 0 9-1 11-2z m101-6l0-7-15 0-15-1 14-10c9-6 14-10 15-12 1-1 1-2 1-7 0-4 0-5-1-7-2-3-4-5-7-7l-3-1-34-1 0 16 30 0-13 9c-7 5-13 10-14 11-2 2-3 3-3 9 0 5 0 5 1 8 2 3 6 6 10 7 0 1 8 1 17 1l17 0z m52 6c3-1 5-4 7-7 1-2 1-2 1-21l0-20-1-2c-2-3-4-5-7-7l-2-1-24 0-3 1c-3 2-5 4-7 7l-1 2 0 39 1 2c2 4 6 7 10 8 1 1 6 1 12 1 12 0 12 0 14-2z m54 0c13-5 19-21 11-33-1-2-3-4-3-4-1-1-2-2-2-2 0 0 2-2 3-4 2-2 4-4 4-4 1-1 1-4 1-7l1-5-5 1c-3 0-6 0-6 0-1 1-5 4-8 8-6 5-8 7-9 7-1 0-2 1-2 1 0 0-1-4-1-8l0-8-15 0 0 60 14 0c14 0 14-1 17-2z m75-6l0-7-30 0 0-8 15 0 0-15-15 0 0-7 30 0 0-15-45 0 0 60 45 0z m52 6c2-1 5-4 7-7 1-2 1-2 1-21l0-20-1-2c-2-3-4-5-7-7l-3-1-34-1 0 61 34 0z m-176-75c-4-3-12-6-18-8-21-7-42-7-63 0-5 1-17 7-20 9 0 0 5 0 52 0l52 0-3-1z m-20 167c0 0-1 0-2-1-1 0-4-2-10-8-4-5-8-9-9-10 0-1 0-2 0-3 0-5 3-8 7-8 1 0 3 1 3 1 2 1 18 17 18 19 1 1 1 2 1 4 0 2-3 5-5 5-1 1-1 1-2 1 0 0-1 0-1 0z m-63-1c-1-1-2-2-3-3-1-2-1-5 0-7 1-1 16-17 18-18 0 0 2-1 3-1 5 0 8 3 8 8 0 1-1 2-1 3-1 1-16 17-18 18-2 1-5 1-7 0z m-9-30c-7-2-11-8-10-15 0-6 3-10 8-13 3-1 3-1 7-1 3 0 4 0 7 1 3 2 5 5 7 8 1 3 1 9 0 12-2 3-4 6-7 7-4 2-9 2-12 1z m75 0c-4-1-8-5-9-9-4-10 4-20 14-20 8 0 15 7 15 15 0 11-10 18-20 14z m-10-89l0-15 15 0 0 30-15 0z m60 7l0-7 5 0c6 0 8 1 9 4 2 3 1 7-2 9-2 1-3 1-7 2l-5 0z m121-7l0-15 15 0 0 30-15 0z"/>
<glyph unicode="&#57366;" d="M238 443c-10-1-21-3-30-5-71-17-127-74-145-145-4-19-5-26-5-48 0-22 1-29 5-47 18-71 74-128 145-145 19-5 26-6 48-6 22 0 29 1 48 6 56 14 104 53 130 105 9 19 15 36 18 58 3 13 3 46 0 59-3 22-9 39-18 58-25 51-73 90-128 104-18 5-27 6-47 6-10 0-20 0-21 0z m35-27c68-6 125-52 146-117 14-43 11-88-9-129-26-54-77-90-137-96-51-5-102 14-138 50-28 28-46 65-50 105-5 50 13 102 50 138 36 36 87 54 138 49z m-108-79c-1 0-5-1-8-1-22-5-40-22-45-40-1-3-1-6-1-8l0-3 26 0 0 3c3 14 19 23 40 23 27 0 45-17 37-35-3-6-6-10-20-22-22-19-29-30-30-44l-1-4 27 0 1 4c2 8 7 14 21 26 18 16 25 24 28 35 3 6 3 17 2 23-3 15-17 31-34 38-10 4-16 5-29 5-7 1-13 1-14 0z m158 0c-1 0-4-1-7-1-22-5-41-22-46-40 0-3-1-6-1-8l0-3 26 0 1 3c3 14 19 23 39 23 28 0 46-17 37-35-2-6-6-10-20-22-21-19-28-30-30-44l0-4 26 0 2 4c2 8 7 14 21 26 18 16 24 24 28 35 2 6 3 17 2 23-3 15-18 31-34 38-11 4-16 5-30 5-6 1-13 1-14 0z m-153-160c-9-5-9-18 0-22 9-5 20 1 20 11 0 10-11 17-20 11z m159 0c-9-5-9-18 0-22 9-5 20 1 20 11 0 10-12 17-20 11z m-133-52c-8-5-8-18 1-23 3-2 3-2 59-2 56 0 56 0 59 2 9 5 9 18 0 23-3 1-3 1-59 1-56 0-57 0-60-1z"/>
<glyph unicode="&#57367;" d="M239 435c-10-1-21-3-29-5-68-17-122-71-138-139-5-18-6-25-6-46 0-21 1-28 6-45 16-68 70-123 138-139 18-5 25-5 46-5 21 0 28 0 46 5 54 13 100 50 125 101 9 18 14 34 17 55 2 13 2 44 0 56-3 21-8 38-17 56-25 50-70 87-123 100-17 5-26 6-45 6-10 0-19 0-20 0z m36-26c19-2 35-7 52-15 35-17 61-43 77-78 31-62 18-138-32-187-13-14-27-24-45-32-63-30-138-18-187 32-14 13-24 28-32 45-31 63-18 138 32 188 35 35 86 53 135 47z m-89-52c-5-1-11-4-15-5-12-6-24-18-27-25-4-8 2-18 10-18 6 0 7 2 15 9 5 5 8 8 13 10 15 8 31 8 47 0 5-3 8-5 14-11 11-11 15-11 27 1 5 5 8 8 13 10 16 8 31 8 47 0 6-3 8-5 14-10 7-8 9-9 14-9 9 0 14 11 10 20-4 7-17 18-30 24-25 11-57 8-77-9l-5-4-5 4c-18 14-43 19-65 13z m13-75c-4-3-6-7-6-11 0-5 2-8 6-11 8-5 19 1 19 11 0 7-6 12-13 12-2 0-4 0-6-1z m101 0c-4-3-6-7-6-11 0-5 2-8 6-11 6-4 13-2 18 4 5 8-2 19-11 19-3 0-5 0-7-1z m-174-49c-4-1-6-4-8-7-1-3-2-5-1-10 1-13 9-32 19-47 6-8 20-22 28-29 36-29 81-40 125-30 25 5 46 16 63 34 22 21 23 28 7 45-7 7-13 11-21 14-10 4-14 5-64 5-60 0-66 1-72 8-5 6-7 8-12 10-6 3-18 6-31 7-13 1-30 1-33 0z m38-27c13-1 15-2 19-7 2-2 5-5 6-6l4-3 0-19c0-11-1-20-1-20 0 0-3 2-7 5-8 6-21 18-27 27-5 6-14 23-13 24 0 1 8 1 19-1z m70-24l9 0 0-25c0-15 0-25 0-25-2 0-14 3-19 4l-5 2 0 46 2-1c2 0 7 0 13-1z m60-23l0-22-3-1c-6-1-13-3-17-4l-5 0 0 50 25 0z m37 20c4-2 11-8 11-9 0-3-19-20-21-20-1 0-1 7-1 16l0 15 4 0c2 0 5-1 7-2z"/>
<glyph unicode="&#57368;" d="M237 443c-81-8-150-66-172-144-19-69 0-143 51-194 51-51 124-70 194-50 66 18 118 71 137 136 19 70 0 143-51 194-42 43-100 63-159 58z m36-27c68-6 125-52 146-117 14-43 11-88-9-129-26-54-77-90-137-96-51-5-102 14-138 50-37 36-55 87-50 138 4 40 21 77 50 105 36 36 87 54 138 49z m-110-91l0-13 8-1c4 0 10-1 15-2 30-6 53-24 56-45l1-5 26 0 1 5c1 3 2 7 3 9 9 21 35 35 69 38l7 1 0 26-9 0c-23-2-47-10-64-22-6-4-15-12-18-16l-2-3-2 3c-1 1-4 4-7 8-18 17-46 28-74 30l-10 0z m33-42c-1-1-3-3-4-5-2-2-2-3-2-19 0-17 0-18 2-20 6-9 17-9 22 0 2 2 2 3 2 20 0 16 0 17-2 19-2 5-6 7-11 7-3 0-5-1-7-2z m106 0c-1-1-3-3-4-5-2-2-2-3-2-19 0-17 0-18 2-20 5-9 16-9 22 0 2 2 2 3 2 20 0 16 0 17-2 19-3 5-7 7-11 7-3 0-5-1-7-2z m-98-105c-3-1-8-3-12-4-8-5-19-15-23-24-3-6-6-15-6-20l0-4 27 0 0 4c2 8 8 17 16 21 4 1 5 1 50 1l46 0 4-2c9-4 14-12 16-20l0-4 27 0 0 4c0 5-3 14-6 20-4 9-15 19-23 24-12 5-12 5-64 5-39 0-48 0-52-1z"/>
<glyph unicode="&#57369;" d="M235 459c0 0-2 0-4 0-1 0-2 0-3 0 0-1-2-1-3-1-1 1-2 0-3 0 0 0-1-1-2 0-1 0-2 0-3-1 0 0-1 0-2 0-1 0-2 0-2 0 0-1-1-1-2-1-1 1-2 1-2 0 0 0-1 0-2 0-2 0-4-1-5-1-1-1-1-1-1 0-1 0-1 0-2-1 0 0-1 0-1 0-1 0-2 0-2 0 0-1-1-1-1-1-1 0-1 0-1 0-1 0-1-1-2 0 0 0-1 0-1-1 0 0-1 0-1 0-1 0-1 0-2 0 0-1 0-1-1-1 0 0-1 0-1 0 0 0 0-1 0-1-1 1-2 0-3 0-1-1-2-1-2 0-1 0-1 0-1-1 0 0-1-1-1 0-1 0-1 0-1-1 0 0 0 0-1 0 0 0-1 0-1 0 0 0 0-1-1 0-1 0-1 0-1-1 1 0 1-1 0 0-1 0-1 0-1 0 0-1-1-1-1-1-1 0-1 0-1 0 0 0 0 0-1 0-1 0-1 0-1-1 1 0 1 0 0 0-1 0-1 0-1 0 0-1 0-1-1-1 0 1 0 0 0 0 0 0-1 0-1 0-1 0-1 0-1-1 0 0-1 0-1 0 0 0-1 0-1 0 0-1 0-1 0-1-1 1-1 0-1 0 0 0 0 0-1 0 0 0 0 0 0-1 0 0 0 0-1 0 0 0-1 0-1 0 0 0 0-1 0 0-1 0-2 0-2-1 0-1 0-1-1-1 0 0 0 0 0 0 0 0-1-1-1 0 0 0-1 0-1-1 0 0 0 0 0 0 0 0-1 0-1-1-1 0-1-1-1 0 1 1 0 1-2-1-1-1-1-1-1-1 0 1 0 0-1 0 0-1-1-1-1-1 0 0 0 0-1 0 0-1-1-1-1-1 0 0 0 0-1-1-1-1-1-1-1-1 0 1 0 0-1-1-1-1-2-1-1-1 0 1-1 0-3-2-1-2-4-4-5-5-2-2-3-3-2-3 0 1 0 0-1-1-2-1-2-2-2-3 0 0 0 0 0 0-1 0-1-1-1-1 0 0 0-1 0-1 0 0-1 0 0 0 0-1 0-1-1-1 0 0 0 0 0-1 0 0 0 0 0 0-1 0-1 0-1-1 0 0 0-1 0-2-1-1-2-3-2-9 0-8 0-8 3-13 5-11 15-21 31-29 19-9 40-15 69-19 4 0 15 0 30 0 15 0 26 0 30 0 39 5 67 15 87 31 5 4 10 10 13 17 3 5 3 5 3 13 0 6-1 8-2 9 0 1-1 2 0 2 0 1 0 1-1 1 0 0 0 0 0 0 0 1 0 1 0 1-1 0-1 0-1 1 1 0 0 0 0 0 0 0-1 1 0 1 0 0 0 1-1 1 0 0 0 0 0 0 0 1 0 2-2 3-1 1-1 2-1 1 1 0 0 1-2 3-1 1-4 3-5 5-2 2-3 3-3 2 1 0 0 0-1 1-1 1-2 2-1 1 0 0 0 0-1 1-1 1-2 1-2 1 0 0 0 0 0 1-1 0-1 0-1 0 0 0-1 0-1 1-1 0-1 1-1 0 0 0 0 0-1 1-2 2-3 2-2 1 0-1 0 0-1 0 0 1-1 1-1 1 0 0 0 0 0 0 0 1-1 1-1 1 0-1-1 0-1 0 0 0 0 0 0 0-1 0-1 0-1 1-1 1-1 1-2 1 0-1-1 0-1 0 0 0 0 0 0 0-1 0-1 0-1 0 0 1 0 1 0 1-1 0-1 0-1 0 0 0 0 1-1 0 0 0 0 0 0 1 0 0-1 0-1 0 0 0-1 0-1 0 0 1 0 1-1 1 0 0-1 0-1 0 0 0 0 1 0 0-1 0-1 0-1 1 0 0 0 0-1 0-1 0-1 0 0 0 0 1 0 1-1 1-1 0-1 0-1 0 0 0-1 0-1 0-1 0-1 0-1 1 0 0 0 0-1 0-1-1-1 0-1 0 1 1 1 1 0 1-1-1-1 0-1 0 0 0-1 0-1 0-1 0-1 0-1 0 0 1-1 1-1 1-1-1-1 0-1 0 0 1 0 1-1 1 0-1-1-1-2 0-1 0-2 1-3 0 0 0 0 1 0 1 0 0-1 0-1 0-1 0-1 0-2 1 0 0 0 0-1 0 0 0-1 0-1 0 0 1-1 1-1 1-1-1-2 0-2 0 0 0-1 0-1 0 0 0-1 0-1 1-1 0-1 0-2 0 0 0-1 0-1 0-1 1-1 1-2 1 0-1 0-1-1 0-1 0-3 1-5 1-1 0-2 0-2 0 0 1-1 1-2 0-1 0-2 0-2 1 0 0-1 0-2 0-1 0-2 0-2 0-1 1-2 1-3 1-1-1-2 0-2 0-1 0-2 1-3 0-1 0-2 0-3 0-1 1-4 1-27 2-11 0-21 0-22-1z m45-21c25-2 49-7 65-15 6-3 14-8 17-11 1-2 2-3 3-3 0 0 0 0 0 0 0 0 0-1 0-1 1 0 1 0 1 0 0-1 0-2 0-2 1 0 1 0 1-1 0 0 0-1 0-1 0 0 1 0 0-1 0 0 0-1 1-1 0 0 0-1 0-3 0-2 0-4 0-4-1 0-1-1-1-1 1-1 0-1 0-1 0 0 0-1 0-1 0-1 0-1-1-1 0 1 0 0 0 0 0-1 0-2-1-3-1 0-1 0 0 0 0 0 0 0-1-1-2-1-3-3-5-4-1-2-1-2-1-2 0 1 0 1-1 0-1-1-1-1-1-1 0 1 0 1-1 0 0 0-1-1-2-2-1-1-1-1-1 0 0 0 0 0 0-1-1 0-1-1-2 0 0 0 0 0 0-1 0 0 0 0-1 0 0 0 0 0 0 0 0-1-1-1-1-1 0 1-1 0-1 0 0 0 0 0 0 0-1 0-1 0-1-1 0 0 0 0-1 0 0 0 0 0 0 0 0-1 0-1-1-1 0 1-1 0-1 0 0 0 0 0 0 0 0 0-1 0-1 0 0-1 0-1-1-1 0 0-1 0-1 0 0-1 0-1 0 0-1 0-1 0-1-1 0 0 0 0-1 0 0 0-1 0-1-1 0 0 0 0-1 0 0 0 0 0 0 0 0-1-1-1-1 0-1 0-1 0-1-1 0 0-1 0-1 0-1 0-1 0-1 0 0-1 0-1-1-1 0 0-1 0-1 0 0 0-1-1-1 0-1 0-1 0-1-1 0 0-1 0-2 0 0 0 0 0 0 0 0-1-1-1-1-1-1 1-1 0-2 0 0 0 0-1-1 0 0 0-1 0-1-1 0 0-1 0-2 0 0 0-1 0-1 0 0-1-1-1-1-1-1 1-1 0-1 0-1 0-1 0-2 0 0 0-1 0-2-1 0 0-1 0-1 0 0 0-1 0-1 0 0 0-1-1-2-1-2 0-4 0-5-1-1 0-2 0-2 0-1 0-2 0-2 0 0 0-2-1-2 0-1 0-2 0-2-1-1 0-2 0-3 0-1 0-4 0-6-1-9 0-13-1-30-1-17 0-22 1-30 1-2 1-5 1-6 1-1 0-2 0-3 0 0 1-1 1-2 1-1-1-2 0-2 0-1 0-1 1-2 0 0 0-1 0-2 0-1 1-3 1-5 1-1 0-2 1-2 1 0 0-1 0-1 0 0 0-1 0-2 0 0 1-1 1-1 1-1 0-2 0-2 0 0 0-1 1-1 0-1 0-1 0-1 1-1 0-1 0-2 0 0 0-1 0-1 0 0 1-1 1-1 1-1-1-1 0-1 0-1 0-1 1-2 0 0 0-1 0-1 1 0 0 0 0-1 0 0 0-1 0-1 0 0 1-1 1-1 1 0-1-1 0-1 0 0 0-1 0-1 0-1 0-1 0-1 1 0 0-1 0-1 0-1 0-1 0-1 0 0 1 0 1-1 1 0-1-1-1-1 0 0 0 0 0-1 0 0 0 0 0 0 0 0 1-1 1-1 1-1 0-1 0-1 0 0 1 0 1-1 1 0-1 0-1 0 0 0 0-1 0-1 0-1 0-1 0-1 1 0 0-1 0-1 0 0 0-1 0-1 0 0 0 0 1 0 0-1 0-1 0-1 1 0 0 0 0 0 0-1 0-1 0-1 0 0 1 0 1-1 1 0 0 0 0 0 0 0 0-1 1-1 0 0 0-1 0-1 1 0 0 0 0 0 0-1 0-1 0-1 0 0 1 0 1 0 1-1-1-1 0-2 0 0 1 0 1 0 1 0-1 0-1-1 0-1 1-2 2-2 2-1 1-2 1-1 0 0 0 0 0-1 1-1 1-1 1-1 0 0 0 0 0-2 2-1 1-3 3-4 4-1 1-1 1-1 1 1 0 1 0 0 0-1 1-1 2-1 3 0 0 0 1-1 0 0 0 0 0 0 1 0 0 0 1 0 1-1 0-1 0 0 1 0 0 0 1-1 1 0 0 0 2 0 4 0 2 0 3 0 3 1 0 1 1 1 1-1 1-1 1 0 1 0 0 0 1 0 1 0 1 0 1 0 1 1 0 1 1 1 2 0 0 0 0 1 0 0 0 0 1 0 1 0 0 0 0 0 0 0 0 2 1 3 3 3 3 10 8 17 11 16 7 40 13 64 15 9 1 40 1 49 0z m-38-121c-8-1-17-3-23-5-55-13-99-57-112-112-3-14-4-19-4-36 0-17 1-23 4-37 13-55 57-99 112-112 14-4 20-4 37-4 17 0 22 0 37 4 44 10 81 41 101 81 7 15 11 28 14 45 1 10 1 35 0 45-3 17-7 30-14 45-20 40-57 70-100 81-13 3-20 4-35 5-8 0-16 0-17 0z m27-21c52-5 97-41 113-91 15-45 5-93-26-129-27-32-71-49-113-45-63 7-113 56-119 120-4 39 10 79 38 106 28 28 68 43 107 39z m-51-62c-5-2-10-7-12-12-5-13 5-28 19-28 12 0 21 9 21 21 0 14-15 24-28 19z m83 0c-6-2-10-5-13-11-1-2-1-3-1-8 0-6 0-7 2-10 2-4 5-7 9-9 3-1 4-1 9-1 5 0 7 0 9 1 4 2 7 5 9 9 2 3 2 4 2 10 0 6-1 9-5 14-4 4-8 6-14 6-3 0-6 0-7-1z m-117-84c0-2 1-7 1-10 4-24 18-45 39-57 26-15 59-15 84 0 18 10 30 27 36 46 2 6 4 16 4 21l0 3-20 0-1-4c-2-18-10-33-22-43-12-9-24-14-39-14-15 0-27 5-38 14-13 10-21 25-23 43l0 4-21 0 0-3z"/>
<glyph unicode="&#57370;" d="M195 398c-3-2-5-4-5-7 0-4 2-6 6-10 4-3 9-9 9-9 0-1-1-1-4-2-2-1-6-3-9-4-5-3-7-3-7-2 0 1-7 8-10 10-7 4-12 6-16 5-4-1-7-5-6-9 0-4 2-6 7-9 3-1 6-4 7-5 3-3 3-3 0-5l-2-1-4 3c-4 4-10 7-15 8-4 1-5 1-7-1-8-4-6-15 3-17 3-1 6-3 7-5l2-1-4-5c-7-9-12-20-13-30-1-3-2-4-16-18-50-51-60-66-60-92 0-24 11-43 31-52 9-4 22-6 31-5 8 2 18 6 29 12 2 2 5 3 5 3 0 0 2-1 3-4 5-5 16-16 23-21 20-15 43-25 66-27 14-2 29 0 45 5 15 5 32 15 44 25 6 4 16 14 20 19l3 3 5-3c15-9 25-12 35-12 12 0 24 3 33 10 16 10 24 29 23 50-1 17-7 30-23 50-8 9-14 15-35 37l-17 17-1 6c-2 9-7 19-13 27-3 3-3 4-3 5 0 2 4 4 8 6 6 2 8 5 8 9 0 4-3 8-7 9-5 1-15-3-20-8l-4-3-2 1c-1 1-2 2-2 3 0 1 5 5 8 6 6 3 8 6 8 11 0 2-1 5-4 7-6 4-19-2-28-13l-1-2-6 3c-3 1-7 3-9 4-2 1-4 1-4 2 0 0 3 3 6 7 4 3 7 7 8 8 1 2 1 6-1 8-3 5-8 6-14 2-4-2-11-10-15-15-2-4-4-5-4-5-1 0-1 0-1 0-1 0-1 4-1 7 0 6-1 8-2 10-3 6-12 6-16 0-1-2-1-4-1-8l-1-6-19 0 0 6c0 7-1 10-5 12-4 2-10 0-12-4-1-2-1-3-1-9 0-6 0-7-1-8-2-1-3 0-5 3-3 5-11 14-16 17-3 2-4 2-6 2-2 0-4 0-5-1z m79-38c36-5 71-26 82-50 2-4 4-11 4-14 0-4 2-7 17-22 49-50 58-63 58-82 0-12-3-21-10-28-7-6-16-10-26-10-9 0-16 3-37 17-6 4-14 8-16 10-11 6-21 10-30 10-4 1-5 0-7-1-3-2-5-4-5-8 0-6 3-8 11-10 3 0 7-1 10-2 6-3 16-8 16-9 0-1-12-14-18-19-16-12-35-21-53-24-6-1-8-1-17-1-15 0-25 3-40 10-11 6-20 12-30 21-5 4-13 12-13 13 0 1 12 7 17 9 2 1 6 2 10 2 6 1 9 3 10 6 3 6-1 12-7 13-5 1-16-1-24-5-5-2-12-7-26-15-15-10-20-13-26-15-5-2-6-2-11-2-17 0-31 10-35 26-2 6-2 18 0 24 5 14 15 26 52 65 11 11 20 21 20 22 1 1 2 4 2 7 2 15 13 29 32 42 17 11 40 19 61 21 7 1 21 0 29-1z m-78-37c-6-3-7-12-2-16 3-2 5-3 11-3l5 0-1-2c-1-1-2-2-2-2-2 0-17-11-24-18-10-9-13-15-13-21 0-13 15-20 26-11 3 2 4 5 4 12 0 5 0 5 2 6 3 1 4 2 11 10 9 11 20 22 26 26 5 4 7 6 7 10 0 4-2 7-5 8-3 2-3 2-11 1-7-1-20 0-28 0-3 1-4 0-6 0z m76 0c-4-2-6-5-6-9 0-3 2-6 7-10 5-4 18-16 26-26 4-5 8-9 9-9 4-2 9-1 12 2 2 3 2 7 1 10-2 2-7 9-15 17l-5 6 4 0c10 1 13 2 15 6 3 4 1 9-3 12-2 1-3 1-8 1-8 0-26 0-30 0-3 1-5 0-7 0z m-29-75c-51-2-96-16-122-37-5-4-6-7-6-11 1-5 4-8 10-8 2 0 3 1 6 3 8 6 13 10 20 13 19 10 41 16 71 20 12 1 43 2 57 1 43-3 78-15 99-32 2-2 5-4 6-4 7-3 15 3 12 11-1 7-21 20-40 28-18 7-41 12-64 15-8 0-34 2-37 2 0 0-5-1-12-1z"/>
<glyph unicode="&#57371;" d="M253 441c-2 0-6-1-10-1-37-5-76-23-105-50-6-6-6-6-4-7 1 0 8-1 16-3 15-3 15-3 17-1 57 43 135 47 194 8 8-5 20-15 25-21l3-3-4-2c-18-11-63-29-125-51l-10-4-24 12c-25 13-51 27-68 37l-10 6 5 5-3-1c-2 0-7-1-12-2l-8-2-6-28c-3-15-6-28-6-28 0 0-3 13-6 28l-6 28-13 3c-7 1-13 2-14 2 0-1 4-24 7-36l3-13-3-8c-7-23-9-34-9-61 0-22 1-29 5-46 7-27 20-54 38-75 6-8 21-23 29-30 21-16 48-29 74-36 17-4 24-5 47-5 22 0 29 1 46 5 27 7 54 20 75 37 8 6 24 22 30 30 16 20 30 47 36 74 5 17 5 24 5 46 0 27-1 38-9 61l-2 8 2 9c5 20 8 41 9 69 0 16 0 18-1 18-1-1-4-3-8-6-7-7-24-19-33-25l-6-4-9 8c-16 16-31 26-51 36-18 9-34 14-54 17-8 2-42 3-47 2z m6-149c24-16 71-38 88-42 6-2 26-2 35-1 16 3 31 10 43 22l8 8 1-6c0-4 1-12 1-19 2-59-28-116-79-147-53-32-120-32-172 0-55 33-86 96-79 159 2 13 1 13 8 5 12-16 28-24 43-23 11 1 35 10 53 20 14 7 33 21 38 27 2 1 3 2 3 2 0 0 4-2 9-5z m103-72c-2-1-4-2-5-3-2-2-4-7-5-13-1-13-6-25-16-37-6-7-12-13-21-19-9-6-15-8-27-9-6-1-10-2-11-3-10-8-7-23 5-25 12-2 33 4 45 12 20 12 31 24 45 48 1 1 1 1 2 0 1 0 4-2 8-3 11-4 18-3 23 5 2 3 3 9 1 12-2 4-6 7-10 8-8 1-13 6-15 13-2 6-5 11-7 12-4 3-8 3-12 2z m-285 177c0-10 1-18 1-18 0 0 7 1 14 2 18 4 18 4 6 13-4 4-11 9-15 13l-7 7z"/>
<glyph unicode="&#57372;" d="M240 443c-30-3-49-9-72-20-51-25-90-73-104-129-5-18-6-28-6-49 0-21 1-31 6-49 17-69 73-125 143-143 18-4 28-5 49-5 21 0 31 1 49 5 70 18 126 74 143 143 5 18 6 28 6 49 0 21-1 31-6 49-14 56-53 104-104 129-19 9-38 15-59 19-8 1-38 2-45 1z m41-28c25-4 48-12 68-26 13-8 20-14 31-25 49-51 62-128 31-192-9-20-18-32-34-48-15-15-28-24-48-34-45-21-97-22-143-1-18 8-34 18-48 32-16 16-28 31-37 50-41 85-6 187 79 229 18 8 39 14 58 16 10 1 33 1 43-1z m-92-52c-23-5-41-21-49-44-2-8-2-9-3-20 0-15 1-19 7-30 6-13 17-24 30-30 12-6 13-6 43-7l26 0 0 27-21 0c-23 0-29 0-36 4-9 4-16 12-20 22-3 7-3 19 0 26 5 12 12 20 24 24 5 2 6 2 29 3l24 0 0 26-24 0c-17 0-26 0-30-1z m80-12l0-13 6 0c16 0 40-1 44-2 10-2 20-10 25-21 3-6 3-7 3-17l0-10-3-7c-4-8-10-14-18-18-8-4-14-4-38-4l-19 0 0-27 27 0c26 1 27 1 33 3 12 4 20 9 28 17 8 9 13 19 16 30 3 9 3 24 0 32-6 24-24 43-49 49-6 1-9 1-31 1l-24 0z m-73-41c-8-5-8-18 1-23 8-5 19 1 19 11 0 10-11 17-20 12z m106 0c-8-4-9-17-1-23 3-2 10-3 14-1 9 4 10 18 2 23-3 3-11 3-15 1z m-91-132c-12-4-23-11-34-22-9-10-14-17-14-22 0-4 1-5 3-6 2-2 2-2 90-2l89 0 2 2c5 5 0 16-11 28-10 10-22 17-33 21l-5 2-42 0c-32 0-42 0-45-1z"/>
<glyph unicode="&#57373;" d="M189 460l0-20-143 0 0-256 143 0 0-82-1 0c-3 0-6-2-8-5l-1-2 0-37 1-1c2-3 5-5 8-6l1 0 0-41 52 0 0 41 2 0c7 1 14 6 17 14 1 2 1 3 1 9l0 8 10 0 0-2c1-7 3-15 5-21 8-20 24-36 44-44 5-1 10-3 15-4 3-1 5-1 13-1 8 0 9 0 13 1 8 2 15 4 22 8 7 3 13 8 19 14 4 4 7 7 10 11l2 4 0-3c0-11 8-20 19-24l2 0 0-4c0-4 0-5 2-6 2-1 4-1 6 0 2 1 2 2 2 6l0 4 2 0c7 3 13 7 16 14 2 5 3 6 2 19 0 10 0 11 0 12-1 2-3 4-5 5l-1 0-18 0c-10 1-18 1-18 1 0 0 1 1 1 3 0 2 0 5 0 12 0 8 0 9 0 13-1 5-3 10-4 15-8 20-24 36-44 44-5 1-10 3-15 4-4 0-5 0-13 0-8 0-10 0-13 0-5-1-10-3-15-4-20-8-36-24-44-44-2-6-4-14-5-21l0-2-30 0 0 92 143 0 0 256-143 0 0 40-52 0z m184-148l0-118-316 0 0 235 316 0z m-15-159c4-1 7-2 11-3l3-1-3-2c-4-3-9-8-13-13-3-4-3-6-2-8 1-2 2-3 4-3 2 0 3 1 6 4 5 7 12 13 19 15l1 1 3-2c12-9 21-23 25-38 2-5 2-10 2-16 0-11-2-20-6-29-7-14-17-24-31-31-9-4-18-6-29-6-11 0-20 2-29 6-18 9-31 25-35 44-3 10-3 22 0 32 3 15 13 29 25 38l3 2 1-1c7-2 14-8 19-15 2-3 4-4 6-4 2 0 3 1 4 3 1 2 1 4-2 8-4 5-9 10-14 13l-2 2 3 1c5 2 10 3 16 3 3 0 11 0 15-1z m-154-62c2-1 4-3 5-5 1-1 1-2 1-9l0-8-1-2c-1-2-3-3-5-5-2 0-2-1-8-1l-7 0 0 31 7 0c6 0 7 0 8-1z m47-16c0-6 0-6-1-8-1-2-2-3-5-4-2-1-2-2-4-2-3 0-3 1-5 2-2 0-3 1-3 2-2 3-3 4-3 11l0 6 21 0 0-7z m204-22c0-6 0-9 0-10-1-6-6-11-13-12-7-1-15 4-17 11 0 2 0 4 0 11l0 8 30 0z m-300 345c-2-1-5-3-6-6 0-2 0-2 0-29 0-27 0-28 0-29 1-3 4-5 6-6 2-1 2-1 19-1 17 0 17 0 19 1 3 1 5 3 6 6 1 1 1 2 1 29 0 27 0 27-1 29-1 3-3 5-6 6-2 1-2 1-19 1-17 0-17 0-19-1z m34-35l0-26-30 0 0 51 30 0z m21 0l0-36 10 0 0 31 21 0 0 10-21 0 0 20 31 0 0 11-41 0 0-36z m51 0l0-36 10 0 0 31 21 0 0 10-21 0 0 20 31 0 0 11-41 0 0-36z m-194-72l0-5 20 0 0-61 10 0 0 61 21 0 0 10-51 0z m68 5c-3-1-5-4-6-6-1-2-1-2-1-29 0-27 0-28 1-30 1-2 2-4 5-5l1-1 37 0 1 1c2 1 4 2 5 4l1 2 0 28 0 28 0 2c-1 2-4 5-6 6-2 0-2 0-19 0-17 0-18 0-19 0z m34-35l0-26-31 0 0 51 31 0z m20 0l0-36 11 0 0 31 11 0c11 0 12 0 14 0 4 1 6 2 10 6 3 3 4 5 5 9 1 5 1 10-2 15-1 3-6 7-9 8-4 2-4 2-23 2l-17 0 0-35z m35 24c5-2 7-7 6-13-1-1-2-2-3-3-3-3-3-3-16-3l-11 0 0 20 23 0z m37-24l0-36 10 0 0 71-10 0 0-35z m28 35c-3-1-5-3-7-5l0-2 0-57 1-2c1-1 2-3 4-4l2-1 36 0 2 1c2 1 4 3 5 4 0 2 0 2 1 9l0 6-11 0 0-10-30 0 0 51 30 0 0-10 11 0 0 7c-1 6-1 6-1 8-1 2-3 3-5 5l-2 0-17 0c-10 0-19 0-19 0z m64-25l0-26 10 0 0 51-10 0z m0-41l0-5 10 0 0 10-10 0z m-33-108c-3-1-6-2-7-5-1-1-1-2-1-5 0-2 0-3 1-4 1-2 3-4 5-5 1 0 2-1 4-1 3 0 4 1 5 1 2 1 3 3 5 5 0 1 0 2 0 4 0 4 0 5-2 8-2 2-4 2-7 3-2 0-3 0-3-1z m51 0c-3-1-5-2-7-5 0-1-1-2-1-5 0-2 1-3 1-4 1-2 3-4 5-5 1 0 2-1 4-1 3 0 4 1 5 1 2 1 4 3 5 5 0 1 1 2 1 4 0 4-1 5-3 8-2 2-4 2-7 3-1 0-3 0-3-1z m-30-40c-20-3-35-12-38-26-1-1-1-3-1-3l0-2 10 0 0 2c2 6 6 10 13 14 14 6 33 6 47-1 6-3 10-8 11-13l1-2 10 0 0 2c0 2-1 5-2 8-5 10-17 17-33 20-3 0-15 1-18 1z"/>
<glyph unicode="&#57374;" d="M239 435c-10-1-21-3-29-5-27-7-54-21-76-39l-8-7-9 0c-8 0-11 0-16-2-15-5-27-17-32-32-2-6-2-8-2-16 0-8 0-10 2-15 1-4 3-8 4-10l2-4-2-7c-9-32-9-67-1-100 13-53 51-99 100-123 14-7 25-11 38-14 18-5 25-5 46-5 21 0 28 0 46 5 54 13 100 50 125 101 12 26 18 49 19 77 0 22-2 40-7 59l-2 7 2 4c1 2 3 6 4 10 2 5 2 7 2 15 0 8 0 10-2 16-5 15-17 27-32 32-5 2-8 2-16 2l-9 0-8 7c-21 18-48 32-74 38-17 5-26 6-45 6-10 0-19 0-20 0z m36-26c32-4 60-16 86-37 0 0 0-1-1-2l-2-2-5 4c-20 18-50 17-69-2-16-16-20-39-10-59 3-6 5-7 43-46l40-40 30 29c16 17 29 29 29 29 0 0 1-3 2-7 10-54-7-109-46-147-13-14-27-24-45-32-63-30-138-18-187 32-14 13-24 28-32 45-16 32-20 67-14 102 1 4 2 7 2 7 0 0 13-12 29-29l30-29 40 40c38 39 40 40 43 46 19 38-14 81-56 73-7-2-17-7-23-12l-5-4-2 2c-1 1-1 2-1 2 21 17 45 29 69 34 18 4 38 5 55 3z m-108-205c0-9 5-23 11-33 3-6 13-16 20-21 33-25 83-25 116 0 7 5 17 15 20 21 6 10 11 24 11 33l0 3-178 0z"/>
<glyph unicode="&#57375;" d="M238 443c-10-1-21-3-30-5-71-17-127-74-145-145-4-19-5-26-5-48 0-22 1-29 5-47 18-71 74-128 145-145 19-5 26-6 48-6 22 0 29 1 48 6 56 14 104 53 130 105 9 19 15 36 18 58 3 13 3 46 0 59-3 22-9 39-18 58-25 51-73 90-128 104-18 5-27 6-47 6-10 0-20 0-21 0z m35-27c75-7 136-63 151-136 21-100-50-195-151-206-55-5-111 17-146 58-57 66-57 160-1 226 36 41 92 64 147 58z m-97-53c-3-1-8-3-11-5-7-3-18-15-22-22-3-5-6-16-6-21l0-4 26 0 1 5c2 6 4 11 9 15 9 9 24 9 34 0 5-4 7-9 9-15l1-5 26 0 0 4c0 5-3 16-6 21-4 7-15 19-22 22-11 6-27 8-39 5z m132 0c-3-1-8-3-11-5-7-3-18-15-22-22-3-5-6-16-6-21l0-4 26 0 1 5c2 6 4 11 9 15 10 9 25 9 34 0 5-4 7-9 9-15l1-5 26 0 0 4c0 5-3 16-6 21-4 7-15 19-22 22-11 6-26 8-39 5z m-53-80c-3-1-8-2-11-4-7-4-18-15-22-22-3-6-6-16-6-21l0-4 27 0 1 4c2 14 12 22 25 22 7 0 13-2 18-8 10-10 11-25 2-35-4-5-9-7-15-9l-5 0 0-27 5-1c13-2 21-12 21-25 0-7-2-13-8-18-10-10-25-11-35-2-5 5-7 9-8 15l-1 5-27 0 0-4c0-5 3-15 6-21 4-7 15-19 22-22 15-8 35-8 50 0 7 3 19 15 22 22 10 19 7 44-7 60l-4 4 4 5c14 16 17 41 7 60-3 7-15 18-22 22-11 6-26 8-39 4z"/>
<glyph unicode="&#57376;" d="M373 247l0-180 108 0 0 361-108 0 0-181z m90 145l0-18-72 0 0 36 72 0z m-36-63l0-27-36 0 0 54 36 0z m36 0l0-27-18 0 0 54 18 0z m0-73l0-27-72 0 0 55 72 0z m-54-72l0-27-18 0 0 54 18 0z m54 0l0-27-36 0 0 54 36 0z m0-72l0-27-72 0 0 54 72 0z m-294 225c-56-6-102-47-116-101-3-12-4-18-4-34 0-15 1-21 4-34 6-23 18-44 35-61 20-21 47-34 76-38 9-2 30-2 38 0 15 2 32 8 42 13 24 11 41 31 50 57 3 8 6 22 6 29 1 8 1 7 5 7 7 0 12 5 14 12 1 5 0 29-2 38-5 28-17 53-37 73-21 20-47 34-75 38-7 1-29 2-36 1z m31-19c37-5 71-29 88-63 8-16 12-32 13-52l0-9-20 0c-29 0-41-2-51-7-8-3-15-13-18-21-2-5-1-14 1-19 3-10 14-21 24-24 8-3 18-3 26 0 1 0 2 1 3 1 0 0-1-1-2-3-10-13-24-22-43-29-16-5-26-6-38-6-38 0-75 20-97 52-2 3-5 9-7 13-21 43-14 92 17 128 25 30 65 44 104 39z m82-144c0-2-2-8-4-12-3-8-10-16-16-19-10-5-19-4-26 3-8 7-8 14-2 21 5 6 15 8 40 8 8 0 8 0 8-1z m-84 108c-5-2-6-9-2-13 2-3 3-3 8-4 12-1 17-4 29-15 8-8 14-12 18-15 2-1 4-2 4-2 0 0-1-2-3-3-1-2-3-4-4-5-1-2-1-7 0-9 2-4 8-5 13-3 2 1 20 19 21 21 1 3 1 7 0 9-2 3-4 4-10 5-4 0-7 1-9 2-5 3-8 5-17 14-11 10-18 14-27 17-8 3-18 3-21 1z"/>
</font>
</defs>
</svg>
